<?xml version="1.0" encoding="UTF-8"?><svg id="Layer_3" xmlns="http://www.w3.org/2000/svg" xmlns:xlink="http://www.w3.org/1999/xlink" viewBox="0 0 93.21 41.69"><defs><style>.cls-1{fill:url(#linear-gradient-2);}.cls-2{fill:#151011;}.cls-3{fill:#000105;}.cls-4{clip-path:url(#clippath-11);}.cls-5{fill:#c7a208;}.cls-6{fill:#fff;}.cls-7{fill:#622d06;}.cls-8{fill:#833e05;}.cls-9{letter-spacing:.04em;}.cls-10{fill:#9e8008;}.cls-11{fill:#bb9807;}.cls-12{fill:#a98909;}.cls-13{fill:#144a1c;}.cls-14{clip-path:url(#clippath-2);}.cls-15{fill:#020001;}.cls-16{fill:#020202;}.cls-17{fill:#c27c07;}.cls-18{clip-path:url(#clippath-6);}.cls-19,.cls-20{fill:#c00;}.cls-21{clip-path:url(#clippath-7);}.cls-22{fill:#ab8a09;}.cls-23{clip-path:url(#clippath-1);}.cls-24{clip-path:url(#clippath-4);}.cls-25{fill:url(#linear-gradient-5);}.cls-26{clip-path:url(#clippath-9);}.cls-27{clip-path:url(#clippath);}.cls-28{fill:#ad8c09;}.cls-29{clip-path:url(#clippath-3);}.cls-30{fill:#415c4b;}.cls-20{font-family:Spantaran, Spantaran;font-size:11.66px;stroke:#2a1000;stroke-miterlimit:10;stroke-width:.25px;}.cls-31{fill:#050002;}.cls-32{clip-path:url(#clippath-8);}.cls-33{fill:url(#linear-gradient-3);}.cls-34{clip-path:url(#clippath-5);}.cls-35{fill:#eea803;}.cls-36{fill:url(#linear-gradient);}.cls-37{fill:#b49207;}.cls-38{clip-path:url(#clippath-10);}.cls-39{fill:#948a88;}.cls-40{fill:#fc0305;}.cls-41{fill:url(#linear-gradient-4);}</style><linearGradient id="linear-gradient" x1="-21.63" y1="15.27" x2="-17.48" y2="15.27" gradientTransform="translate(26.1 -14.96) rotate(-31.27)" gradientUnits="userSpaceOnUse"><stop offset="0" stop-color="#ab8a09"/><stop offset=".06" stop-color="#ac8c0d"/><stop offset=".12" stop-color="#b0921a"/><stop offset=".19" stop-color="#b89c2f"/><stop offset=".25" stop-color="#c2aa4d"/><stop offset=".32" stop-color="#cfbc73"/><stop offset=".39" stop-color="#dfd2a2"/><stop offset=".46" stop-color="#f1ecd8"/><stop offset=".5" stop-color="#fff"/><stop offset=".5" stop-color="#fefdfc"/><stop offset=".52" stop-color="#eee8ce"/><stop offset=".54" stop-color="#e0d4a5"/><stop offset=".57" stop-color="#d3c280"/><stop offset=".59" stop-color="#c8b35f"/><stop offset=".62" stop-color="#bfa644"/><stop offset=".66" stop-color="#b79b2e"/><stop offset=".7" stop-color="#b1931d"/><stop offset=".74" stop-color="#ad8e11"/><stop offset=".81" stop-color="#ab8a0a"/><stop offset="1" stop-color="#ab8a09"/></linearGradient><clipPath id="clippath"><polygon class="cls-11" points="18 7.83 19.06 7.74 18.48 8.64 18.92 9.67 17.87 9.36 17.05 10.06 16.99 9 16.09 8.45 17.07 8.05 17.31 7.02 18 7.83"/></clipPath><clipPath id="clippath-1"><polygon class="cls-37" points="17.34 7.14 17.97 7.89 18.94 7.8 18.42 8.63 18.82 9.57 17.84 9.29 17.1 9.93 17.05 8.96 16.22 8.45 17.12 8.09 17.34 7.14"/></clipPath><linearGradient id="linear-gradient-2" x1="45.71" y1="170.81" x2="49.85" y2="170.81" gradientTransform="translate(80.73 -167.89) rotate(15.82)" xlink:href="#linear-gradient"/><clipPath id="clippath-2"><polygon class="cls-11" points="80.89 9.7 81.69 10.41 80.63 10.6 80.18 11.63 79.69 10.64 78.62 10.52 79.35 9.75 79.15 8.72 80.1 9.17 81.02 8.64 80.89 9.7"/></clipPath><clipPath id="clippath-3"><polygon class="cls-37" points="80.95 8.74 80.83 9.71 81.56 10.37 80.59 10.55 80.18 11.48 79.72 10.57 78.75 10.47 79.42 9.77 79.23 8.82 80.11 9.23 80.95 8.74"/></clipPath><linearGradient id="linear-gradient-3" x1="24.73" y1="11.44" x2="32.4" y2="11.44" gradientTransform="matrix(1,0,0,1,0,0)" xlink:href="#linear-gradient"/><clipPath id="clippath-4"><polygon class="cls-11" points="30.06 11.43 31.82 12.31 30.05 13.18 29.84 14.56 29.24 14.62 28.39 13.73 26.43 14.05 27.34 12.31 26.45 10.58 28.38 10.89 29.75 9.5 30.06 11.43"/></clipPath><clipPath id="clippath-5"><polygon class="cls-37" points="29.68 9.71 29.95 11.5 31.58 12.3 29.95 13.1 29.75 14.5 29.35 14.51 29.25 14.45 28.41 13.59 26.62 13.89 27.47 12.3 26.64 10.71 28.43 11 29.68 9.71"/></clipPath><clipPath id="clippath-6"><path class="cls-40" d="m59.85,10.4c0,2.14-1.74,3.88-3.88,3.88s-3.88-1.74-3.88-3.88,1.74-3.88,3.88-3.88,3.88,1.74,3.88,3.88Z"/></clipPath><clipPath id="clippath-7"><path class="cls-13" d="m24.24,8.03c1.26,1.07,1.41,2.96.34,4.22-1.07,1.26-2.96,1.41-4.22.34-1.26-1.07-1.41-2.96-.34-4.22,1.07-1.26,2.96-1.41,4.22-.34Z"/></clipPath><linearGradient id="linear-gradient-4" x1="61.1" y1="10.36" x2="67.96" y2="10.36" gradientTransform="matrix(1,0,0,1,0,0)" xlink:href="#linear-gradient"/><clipPath id="clippath-8"><polygon class="cls-11" points="65.86 10.35 67.44 11.14 65.85 11.92 65.67 13.15 65.13 13.21 64.37 12.41 62.61 12.7 63.42 11.14 62.63 9.59 64.36 9.87 65.59 8.62 65.86 10.35"/></clipPath><clipPath id="clippath-9"><polygon class="cls-37" points="65.52 8.81 65.76 10.41 67.22 11.12 65.76 11.84 65.59 13.1 65.23 13.11 65.14 13.05 64.39 12.28 62.78 12.55 63.54 11.13 62.8 9.71 64.4 9.96 65.52 8.81"/></clipPath><linearGradient id="linear-gradient-5" x1="27.11" y1="1.44" x2="38.35" y2="1.44" gradientTransform="translate(15.09 13.6) rotate(-17.76)" xlink:href="#linear-gradient"/><clipPath id="clippath-10"><polygon class="cls-11" points="48.77 4.32 51.64 4.75 49.55 6.76 50.05 9.76 47.47 8.27 44.88 9.6 45.37 6.76 43.36 4.74 46.19 4.31 47.48 1.75 48.77 4.32"/></clipPath><clipPath id="clippath-11"><polygon class="cls-37" points="47.47 2.08 48.65 4.46 51.29 4.84 49.37 6.69 49.85 9.43 47.44 8.07 45.07 9.28 45.55 6.69 43.68 4.84 46.3 4.44 47.47 2.08"/></clipPath></defs><path class="cls-8" d="m68.63,13.27v-.22s.37-2.15,2.44-3.63c0,0,1.05-.81,2.71-1.06,0,0,2.32-.33,3.22.99,0,0,.62.85-.34,2.45,0,0-.38.71-1.09,1.34l-6.95.13Z"/><path class="cls-39" d="m68.81,13.42c.16-1.45.99-2.72,2.08-3.63,1.09-.93,2.56-1.36,3.97-1.26.35.02.71.07,1.05.16.34.1.69.23.94.49.06.07.12.14.15.23.03.09.05.18.05.27.01.18-.02.36-.07.53-.11.34-.3.65-.53.92-.46.55-1.03.98-1.62,1.37-.59.38-1.21.73-1.85,1.04l-.1-.21c.64-.28,1.27-.58,1.87-.95.59-.37,1.17-.78,1.62-1.31.22-.26.42-.56.53-.89.05-.16.08-.34.07-.51,0-.09-.02-.17-.05-.25-.03-.07-.09-.14-.14-.21-.24-.25-.58-.38-.91-.46-.34-.08-.69-.11-1.04-.11-.7-.02-1.4.05-2.06.26-.66.22-1.29.54-1.81,1-.53.45-.99.98-1.34,1.58-.35.59-.61,1.26-.67,1.94h-.17Z"/><path class="cls-7" d="m74.34,9.8s.04.11-.39.08c0,0-.05.37-.18.57h.25s-.05.29-.22.52c0,0-.15.24-.34.28,0,0-.19.04-.35-.03l.25-.18h.09s.12-.07.19-.25c0,0-.37.24-.67.37,0,0-.15.01-.23,0,0,0-.35.41-1.1.57,0,0-.14.06-.26.15,0,0-.76.69-.97.59l.18-.32h.08l.05-.07s.39-.14.56-.53c0,0,.3.05.48-.23,0,0,0-.22.03-.36,0,0-.03-.08-.19-.02,0,0-.32.2-.49-.15,0,0,.34.07.45,0,0,0,.13-.03.3,0,0,0,.1-.21.46-.24,0,0,1-.09,1.28-.82,0,0-.2-.08-.31-.26,0,0,.12-.02.27,0,0,0-.06-.07-.19-.15,0,0-.13-.14-.23-.22,0,0,.13.02.28.13,0,0,.28.1.42.25,0,0,.12-.01.25.11l.21.14s.05.03.04.07Z"/><path class="cls-8" d="m73.65,10.5s.12-.03.28.02c0,0-.07.48-.5.69,0,0-.13.02-.2-.01,0,0,.07-.06.11-.09h.12s.25-.15.26-.41c0,0-.12.03-.36.19,0,0-.27.15-.39.23h-.26s-.41.39-1.07.57c0,0-.14.03-.37.21,0,0-.59.55-.76.52,0,0,.05-.09.11-.18h.08s.06-.08.06-.08c0,0,.37-.13.58-.5,0,0,.36,0,.49-.27v-.02s-.03-.25.03-.38c0,0-.06-.15-.4,0,0,0-.17.05-.26-.11,0,0,.13.04.21.05,0,0,.08,0,.23-.06,0,0,.11-.04.27.03,0,0,.11-.23.46-.25,0,0,.99-.07,1.29-.87,0,0-.19-.1-.3-.22,0,0,.16-.02.31,0,0,0-.06-.09-.18-.15,0,0-.18-.12-.26-.2,0,0,.19.13.36.18,0,0,.11.04.23.18,0,0,.09,0,.12.01,0,0,.21.13.36.23h-.06s.02.05.02.05c0,0-.16.06-.35,0,0,0-.06.43-.25.68Z"/><path class="cls-7" d="m73.86,9.6s.08-.02.17.1c0,0-.04-.03-.14-.03,0,0-.04-.04-.04-.06Z"/><path class="cls-7" d="m73.49,9.57h.17s.04.04.09.1c0,0-.18-.03-.26-.1Z"/><path class="cls-7" d="m73.7,10.07s-.06.15-.19.28c0,0-.06.06.06.14,0,0-.07-.07.04-.19,0,0,.08-.11.09-.23Z"/><path class="cls-7" d="m73.17,10.63s.16.01.29.06c0,0-.16,0-.25.07,0,0-.28.24-.9.25,0,0-.03.01-.05.05l-.13.23.07-.28s.01-.12.19-.1c0,0,.36.02.77-.28Z"/><path class="cls-7" d="m73.72,11.79h0s0-.02,0-.02c0,0,.01,0,.02.01.01,0,.02.01.03.02,0,0,.02,0,.03,0,.01,0,.02-.01.03-.03,0-.01.01-.02.01-.04,0-.01,0-.02-.02-.03,0,0-.02,0-.04,0-.02,0-.04,0-.05-.01-.01,0-.02-.02-.02-.05,0-.02,0-.04.02-.07.01-.02.03-.04.06-.05,0,0,.02,0,.03,0,.01,0,.02,0,.02,0h0s0,0,0,0c0,0,.01,0,.01,0,0,0,0,.02,0,.04,0,.01,0,.02,0,.02,0,0,0,0-.02,0,0,0-.02-.01-.02-.01,0,0-.02,0-.03,0-.01,0-.02.01-.03.03,0,.01,0,.02,0,.03,0,.01,0,.02.02.02,0,0,.02,0,.04,0,.02,0,.04,0,.05,0,0,0,.01.01.02.02,0,0,0,.02,0,.02h0s0,.03,0,.04c0,.01,0,.03-.02.04-.02.02-.04.04-.06.06,0,0-.02,0-.03.01s-.02,0-.02,0h0s-.01,0-.02,0c0,0,0-.02,0-.04Z"/><path class="cls-7" d="m74.03,11.6s-.03.02-.03.02c0,0,0,.02,0,.05,0,0,0,.02,0,.02,0,0,0,0,0,0,0,0,0,0,0,0,0,0,0,.01-.03.02-.02,0-.03.02-.04.02,0,0,0,0,0,0h0s0-.01,0-.02c0,0,0-.01.01-.02,0-.02.02-.07.04-.15,0-.02.01-.04.01-.06,0-.02,0-.04.01-.05,0-.02.02-.03.03-.04h0s.02,0,.03.01c0,.01.02.04.03.07.01.04.02.07.04.1,0,0,0,.02.01.02,0,0,0,0,0,0,0,0,0,0,0,0,0,0,0,.02-.02.03l-.03.02s-.03.02-.04.02c0,0,0,0,0,0,0,0,0,0,0,0,0,0,0,0,0,0,0,0,0-.02,0-.03,0-.02,0-.03-.01-.04,0,0-.02,0-.03.01Zm-.02-.01h0s0,0,0,0h.02s.03-.02.03-.03,0,0,0-.01c0,0,0-.01,0-.02,0,0,0-.02,0-.03,0-.01,0-.02,0-.03,0,0,0,0,0,0,0,0,0,.02,0,.04,0,.03,0,.05,0,.05,0,.02,0,.03,0,.03h0s0,0,0,0Z"/><path class="cls-7" d="m74.31,11.37s0-.06,0-.07c0,0,0,0-.01-.01,0,0,0,0,0-.01s.02-.02.06-.04h.01s.02-.02.02-.02c.05-.02.07-.02.09,0,0,0,0,.02,0,.03,0,.02,0,.05-.03.07,0,.01-.01.02-.01.02,0,0,0,0,0,0,0,0,0,.01.02.03.01.01.02.02.02.03,0,0,.01,0,.02.01.01,0,.02,0,.02,0,0,0,0,0,0,.01,0,0,0,0-.02.01h0s-.03.02-.04.01c0,0-.02-.02-.03-.04-.01-.02-.02-.03-.02-.03,0,0-.02,0-.03,0,0,0,0,.01,0,.03,0,.02,0,.04,0,.05,0,0,0,.01.01.02,0,0,0,0,0,.01,0,0-.01.02-.04.03-.03.01-.04.02-.05.02,0,0-.01,0-.01,0,0,0,0,0,0-.02,0,0,0-.01.01-.02,0,0,0-.02,0-.04h0s0-.01,0-.01c0,0,0,0,0-.01v-.02s0-.06,0-.06Zm.06-.12s0,0,0,.01c0,0,0,.02,0,.03v.03s0,0,0,0c0,.02,0,.03,0,.03,0,0,0,0,.02,0,.01,0,.03-.02.03-.03,0-.01.01-.03.01-.05h0s0-.03-.01-.04c0,0-.02,0-.03,0h0s0,0,0,0Z"/><path class="cls-7" d="m74.65,11.38s-.03.01-.05.01c-.01,0-.02,0-.03-.02,0-.01-.01-.02-.01-.04,0-.01,0-.04,0-.09,0-.04,0-.07,0-.08,0,0,0,0-.01,0,0,0-.01,0-.01,0,0,0,0-.01,0-.02,0,0,.01,0,.02-.02l.05-.02s.02,0,.02,0c0,0,0,0,0,.02,0,.01,0,.02,0,.03,0,.01,0,.03,0,.06v.03s0,.03,0,.04c0,.05.01.08.04.07,0,0,.01,0,.02,0,0,0,.02-.01.02-.02,0,0,.01-.02.02-.03,0-.02,0-.05,0-.09,0-.04,0-.08,0-.09,0,0,0-.01,0-.02,0,0,0-.01,0-.01,0,0,.01-.02.04-.03h.01s.03-.02.03-.01c0,0,0,.01,0,.02-.01.02-.02.02-.02.03,0,0,0,.04,0,.08,0,.05,0,.08,0,.09,0,.04-.02.07-.04.1-.01.01-.03.03-.04.03h-.02Z"/><path class="cls-7" d="m74.95,11.1s0,0,.01-.01c0,0,.02-.01.05-.03.02-.01.03-.01.03,0,0,0,0,0,0,.01,0,.01-.01.02-.01.02,0,0,0,.02,0,.04,0,.02,0,.04,0,.05,0,0-.01.01-.02.02-.04.03-.06.04-.06.04h0s-.03.02-.04.02c-.01,0-.03,0-.04-.01-.02-.02-.03-.05-.04-.09,0-.04,0-.08.03-.12.01-.02.02-.04.04-.05.02-.02.03-.03.05-.04h0s.02-.01.04-.02c.01,0,.02,0,.02,0h0s0,0,0,0c.01,0,.02,0,.02.04,0,.01,0,.02,0,.02,0,0,0,0-.02,0-.01,0-.02,0-.02,0-.01,0-.03,0-.04,0-.01,0-.02.01-.03.02,0,0-.02.02-.02.04-.01.03-.02.06-.02.09,0,.04,0,.06.02.08,0,0,.01.01.02.02,0,0,.02,0,.03,0,.01,0,.02-.01.02-.02,0,0,0-.02,0-.04,0-.02,0-.03,0-.04,0,0,0,0,0,0Z"/><path class="cls-7" d="m75.1,10.93s0-.03,0-.04c0,0,0-.01-.01-.01,0,0,0,0,0,0,0,0,0-.01.01-.02,0,0,.03-.02.06-.03h.03s.05-.04.06-.03c.02,0,.02.02.03.04,0,.02,0,.04-.03.07,0,.01-.01.02-.01.02,0,0,0,0,0,0,.01,0,.02,0,.03,0,0,0,.02.02.02.04h0s0,.05-.02.08c-.02.02-.04.04-.07.06h-.03s0,.02,0,.02h-.03s-.02.02-.02.02h0s-.02.01-.02,0c0,0,0-.01,0-.02,0,0,.01-.02.01-.02,0,0,0-.03,0-.06v-.02s0-.01,0-.01c0,0,0,0,0-.01h0s0-.02,0-.02h0s0-.04,0-.04Zm.05.1s0,.05,0,.05c0,0,.01,0,.02,0h0s.02-.02.03-.03c0-.01.01-.03.01-.04h0s0-.03-.02-.04c0,0-.02,0-.04,0h0s0,.01,0,.01c0,0,0,0,0,.01v.03s0,0,0,0h0Zm.01-.19s-.01,0-.01.01c0,0,0,.02,0,.03v.04s0,.02.01.02h0s0,0,0,0h0s.02-.02.03-.03c0-.01.01-.03.01-.04h0s0-.03-.01-.03c0,0-.02,0-.03,0h0s0,0,0,0Z"/><path class="cls-7" d="m75.39,10.9s-.02-.05-.05-.09c0-.01-.02-.02-.02-.02-.01-.01-.02-.02-.02-.02h0s.02-.02.06-.04h.01s.02-.02.02,0c0,0,0,0,0,.01,0,0,0,.01,0,.02,0,.01,0,.04.03.07,0,.01,0,.01.01.01,0,0,.01-.02.02-.06,0-.03.01-.04.01-.05,0,0,0,0,0-.01,0,0,0,0,0,0,0,0,0-.01.02-.02h.01s.03-.02.03-.02c0,0,0,0,0,0,0,0,0,.01-.01.02,0,.01-.02.02-.02.03,0,0-.02.04-.03.09-.01.03-.02.06-.02.08,0,.02,0,.04,0,.05,0,0,0,0,.01,0,0,0,0,0,0,.01,0,0-.02.02-.06.04l-.03.02s-.02,0-.02,0c0,0,0,0,0-.02,0,0,.01-.02.01-.02,0-.02,0-.04,0-.06Z"/><path class="cls-22" d="m19.63,7.51c.64,1.05.3,2.43-.75,3.07-1.05.64-2.43.3-3.07-.75-.64-1.05-.3-2.43.75-3.07,1.05-.64,2.43-.3,3.07.75Z"/><path class="cls-36" d="m16.64,6.83c.7-.43,1.54-.41,2.21-.04-.68-.41-1.56-.44-2.28,0-1.04.63-1.37,1.98-.74,3.02.2.34.48.6.8.77-.29-.18-.54-.42-.73-.73-.63-1.04-.3-2.39.74-3.02Z"/><polygon class="cls-11" points="18 7.83 19.06 7.74 18.48 8.64 18.92 9.67 17.87 9.36 17.05 10.06 16.99 9 16.09 8.45 17.07 8.05 17.31 7.02 18 7.83"/><g class="cls-27"><polygon class="cls-10" points="17.28 6.97 17.35 7.02 17.4 7.35 17.19 8.16 16.36 8.47 16.04 8.45 17.05 8.02 17.28 6.97"/><polygon class="cls-10" points="18.04 7.75 17.96 7.89 17.96 7.94 18.84 7.86 18.94 7.81 19.1 7.71 18.04 7.75"/><polygon class="cls-10" points="17.04 10.1 17.13 9.85 17.15 9.8 17.11 8.91 16.94 9.02 17.04 10.1"/><polygon class="cls-12" points="17.3 6.95 17.34 7.15 17.4 7.35 17.94 7.98 17.95 7.93 18.01 7.79 17.3 6.95"/><polygon class="cls-28" points="19.13 7.72 19.09 7.72 18.88 7.84 18.81 7.89 18.35 8.62 18.54 8.65 19.13 7.72"/><polygon class="cls-12" points="17.88 9.45 17.89 9.39 17.81 9.22 17.86 9.18 18.78 9.53 18.97 9.71 19.01 9.76 17.88 9.45"/><polygon class="cls-12" points="16.91 9.03 16.96 9.01 17.14 8.9 16.45 8.48 16.41 8.46 16.09 8.45 16.04 8.45 16.91 9.03"/></g><polygon class="cls-37" points="17.34 7.14 17.97 7.89 18.94 7.8 18.42 8.63 18.82 9.57 17.84 9.29 17.1 9.93 17.05 8.96 16.22 8.45 17.12 8.09 17.34 7.14"/><g class="cls-23"><polygon class="cls-5" points="17.34 7.12 17.39 7.32 17.19 8.16 16.4 8.47 16.35 8.47 16.17 8.45 17.1 8.07 17.34 7.12"/><polygon class="cls-5" points="17.93 7.99 17.97 7.89 18.01 7.86 19.01 7.76 18.75 7.92 17.93 7.99"/><polygon class="cls-5" points="17.01 8.99 17.11 8.93 17.17 8.96 17.2 9.73 17.16 9.8 17.09 9.97 17.01 8.99"/></g><polygon class="cls-37" points="16.37 8.48 17.18 8.14 17.38 7.28 17.95 7.95 18.83 7.88 18.36 8.63 18.73 9.46 17.84 9.23 17.17 9.8 17.11 8.92 16.37 8.48"/><path class="cls-22" d="m82.24,10.67c-.34,1.19-1.57,1.87-2.76,1.54-1.19-.34-1.87-1.57-1.54-2.76.34-1.19,1.57-1.87,2.76-1.54,1.19.34,1.87,1.57,1.54,2.76Z"/><path class="cls-1" d="m80.7,8.01c.79.22,1.35.85,1.53,1.6-.16-.78-.73-1.44-1.55-1.67-1.17-.33-2.38.35-2.71,1.51-.11.38-.11.76-.02,1.12-.07-.33-.06-.69.04-1.04.33-1.17,1.55-1.84,2.71-1.51Z"/><polygon class="cls-11" points="80.89 9.7 81.69 10.41 80.63 10.6 80.18 11.63 79.69 10.64 78.62 10.52 79.35 9.75 79.15 8.72 80.1 9.17 81.02 8.64 80.89 9.7"/><g class="cls-14"><polygon class="cls-10" points="81.04 8.58 81.04 8.67 80.83 8.93 80.1 9.33 79.3 8.93 79.11 8.69 80.11 9.13 81.04 8.58"/><polygon class="cls-10" points="80.99 9.67 80.82 9.71 80.79 9.74 81.44 10.33 81.55 10.37 81.73 10.42 80.99 9.67"/><polygon class="cls-10" points="78.58 10.54 78.82 10.43 78.88 10.42 79.5 9.78 79.31 9.73 78.58 10.54"/><polygon class="cls-12" points="81.07 8.58 80.94 8.75 80.83 8.93 80.74 9.76 80.79 9.73 80.93 9.68 81.07 8.58"/><polygon class="cls-28" points="81.74 10.45 81.72 10.42 81.49 10.35 81.4 10.33 80.56 10.49 80.66 10.65 81.74 10.45"/><polygon class="cls-12" points="79.63 10.71 79.67 10.68 79.75 10.51 79.81 10.51 80.18 11.42 80.18 11.68 80.17 11.75 79.63 10.71"/><polygon class="cls-12" points="79.28 9.72 79.32 9.74 79.53 9.8 79.36 9.01 79.35 8.96 79.15 8.72 79.11 8.69 79.28 9.72"/></g><polygon class="cls-37" points="80.95 8.74 80.83 9.71 81.56 10.37 80.59 10.55 80.18 11.48 79.72 10.57 78.75 10.47 79.42 9.77 79.23 8.82 80.11 9.23 80.95 8.74"/><g class="cls-29"><polygon class="cls-5" points="80.97 8.73 80.85 8.9 80.1 9.33 79.34 8.96 79.3 8.93 79.2 8.78 80.11 9.2 80.97 8.73"/><polygon class="cls-5" points="80.74 9.76 80.83 9.71 80.88 9.73 81.64 10.39 81.34 10.31 80.74 9.76"/><polygon class="cls-5" points="79.37 9.76 79.48 9.79 79.51 9.86 78.96 10.4 78.88 10.42 78.71 10.48 79.37 9.76"/></g><polygon class="cls-37" points="79.31 8.94 80.11 9.31 80.88 8.87 80.77 9.74 81.42 10.34 80.56 10.5 80.2 11.34 79.76 10.53 78.89 10.43 79.49 9.79 79.31 8.94"/><path class="cls-22" d="m32.94,12.5c0,2.28-1.85,4.13-4.13,4.13s-4.13-1.85-4.13-4.13,1.85-4.13,4.13-4.13,4.13,1.85,4.13,4.13Z"/><path class="cls-33" d="m28.87,8.54c1.52,0,2.84.83,3.54,2.07-.68-1.3-2.04-2.2-3.61-2.2-2.24,0-4.06,1.82-4.06,4.06,0,.73.19,1.41.53,2-.29-.56-.46-1.19-.46-1.86,0-2.24,1.82-4.06,4.06-4.06Z"/><polygon class="cls-11" points="30.06 11.43 31.82 12.31 30.05 13.18 29.84 14.56 29.24 14.62 28.39 13.73 26.43 14.05 27.34 12.31 26.45 10.58 28.38 10.89 29.75 9.5 30.06 11.43"/><g class="cls-24"><polygon class="cls-10" points="29.76 9.38 29.8 9.54 29.56 10.11 28.46 11.19 26.84 10.88 26.37 10.54 28.37 10.82 29.76 9.38"/><polygon class="cls-10" points="30.21 11.34 29.93 11.5 29.9 11.57 31.35 12.29 31.57 12.3 31.91 12.31 30.21 11.34"/><polygon class="cls-10" points="26.37 14.1 26.74 13.79 26.83 13.74 27.62 12.3 27.25 12.3 26.37 14.1"/><polygon class="cls-12" points="29.8 9.37 29.67 9.73 29.56 10.11 29.81 11.62 29.89 11.54 30.12 11.39 29.8 9.37"/><polygon class="cls-28" points="31.95 12.36 31.9 12.32 31.44 12.29 31.28 12.31 29.86 13.02 30.12 13.24 31.95 12.36"/><polygon class="cls-12" points="28.31 13.87 28.38 13.8 28.43 13.46 28.54 13.43 29.49 14.4 29.53 14.58 29.19 14.72 28.31 13.87"/><polygon class="cls-12" points="27.19 12.29 27.28 12.31 27.67 12.31 26.98 10.99 26.94 10.91 26.45 10.58 26.37 10.54 27.19 12.29"/></g><polygon class="cls-37" points="29.68 9.71 29.95 11.5 31.58 12.3 29.95 13.1 29.75 14.5 29.35 14.51 29.25 14.45 28.41 13.59 26.62 13.89 27.47 12.3 26.64 10.71 28.43 11 29.68 9.71"/><g class="cls-34"><polygon class="cls-5" points="29.7 9.68 29.58 10.04 28.46 11.18 26.91 10.92 26.84 10.87 26.57 10.66 28.41 10.94 29.7 9.68"/><polygon class="cls-5" points="29.8 11.62 29.95 11.5 30.05 11.5 31.73 12.3 31.16 12.31 29.8 11.62"/><polygon class="cls-5" points="27.38 12.31 27.59 12.32 27.67 12.43 26.97 13.67 26.85 13.74 26.56 13.94 27.38 12.31"/></g><polygon class="cls-37" points="26.86 10.9 28.47 11.14 29.62 9.97 29.86 11.58 31.32 12.31 29.86 13.04 29.65 14.54 29.51 14.55 29.41 14.46 28.46 13.49 26.87 13.76 27.6 12.31 26.86 10.9"/><polygon class="cls-30" points="33.41 12.96 33.52 13.3 34.68 13.36 34.98 13.15 35.02 13.08 36 12.5 36.35 12.26 36.09 11.54 35.43 11.41 33.41 12.96"/><path d="m34.7,13.41l-1.22-.06-.13-.41,2.07-1.59.71.15.28.79-.38.26-.98.58-.05.07-.31.21Zm-1.14-.16l1.1.05.27-.19.05-.08.98-.58.31-.21-.23-.65-.6-.12-1.97,1.52.09.27Z"/><path class="cls-35" d="m30.96,11.41s.1.98.43,1.47l.41.41,2.03-.19,1.94-1.1,1.28-2.07,3.61-1.09,2.11-.35-.46-1.87-.68-1.02s-.29-.22-.53-.31l-9.92,5.97s-.15.1-.2.16Z"/><path class="cls-31" d="m31.79,13.34l-.43-.43c-.35-.5-.45-1.46-.45-1.5v-.02s0-.02,0-.02c.05-.07.2-.17.21-.18l9.95-5.99h.02c.25.1.54.32.55.32h.01s.69,1.05.69,1.05l.48,1.93-2.17.36-3.58,1.08-1.28,2.07-1.96,1.11-2.05.19Zm-.76-1.91c.02.15.13.99.42,1.42l.38.38,1.99-.19,1.91-1.09,1.28-2.08,3.63-1.09,2.06-.34-.45-1.81-.67-1.01s-.28-.2-.49-.29l-9.9,5.96s-.13.09-.17.13Z"/><path class="cls-30" d="m30.01,13.19l.18-.02.2-.12.85-.5,2.8-1-1.61,1.54s-2.06.2-2.42.1Z"/><path d="m30.4,13.28c-.2,0-.33,0-.41-.03l-.28-.08.46-.05,1.04-.61,3.05-1.09-1.81,1.73h-.02s-1.33.13-2.04.13Zm-.09-.11s.06,0,.09,0c.66,0,1.85-.11,2.01-.13l1.41-1.35-2.56.92-.95.55Z"/><path class="cls-40" d="m59.85,10.4c0,2.14-1.74,3.88-3.88,3.88s-3.88-1.74-3.88-3.88,1.74-3.88,3.88-3.88,3.88,1.74,3.88,3.88Z"/><g class="cls-18"><path class="cls-6" d="m55.86,6.2l.22.33s1,.39,2.17.75l.15-.04.05-.39-2.59-.65Z"/><path class="cls-6" d="m59.94,10.38l-.13.19s-.28.78-.73,2.09l.03.27.69-.37.41-1.72-.27-.47Z"/><path class="cls-6" d="m59.94,10.38l-.13.19s-.28.78-.73,2.09l.03.27.69-.37.41-1.72-.27-.47Z"/><path class="cls-6" d="m51.99,10.42l.13-.19s.28-.78.73-2.09l-.03-.27-.69.37-.41,1.72.27.47Z"/><path class="cls-6" d="m54.86,8.3l3.37,1.17s.39.19.23.69l-.73,2.09s-.14.38-.68.24l-3.34-1.18s-.37-.15-.25-.62l.76-2.14s.12-.39.65-.24Z"/><path class="cls-3" d="m56.85,9.6s-.02-.07-.19.01c0,0-.12.09-.43-.14l-.29-.2s-.22.52-.45.88l.14.09s.14-.16.37-.05c0,0,.21.18.04.52,0,0-.13.35-.35.33,0,0-.17-.02-.23-.14,0,0,.11-.02.17-.17,0,0,.07-.17-.08-.25,0,0-.21-.09-.33.16,0,0-.09.34.33.49,0,0,.66.25.88-.29,0,0,.18-.5-.17-.71,0,0-.2-.16-.54-.07,0,0,.12-.17.21-.39,0,0,.46.49.94-.07Z"/></g><path class="cls-13" d="m24.24,8.03c1.26,1.07,1.41,2.96.34,4.22-1.07,1.26-2.96,1.41-4.22.34-1.26-1.07-1.41-2.96-.34-4.22,1.07-1.26,2.96-1.41,4.22-.34Z"/><g class="cls-21"><path class="cls-6" d="m19.78,8.27l.3.04s.73-.39,1.53-.9l.06-.11-.21-.22-1.68,1.19Z"/><path class="cls-6" d="m24.82,12.34l-.3-.04s-.73.39-1.53.9l-.06.11.21.22,1.68-1.19Z"/><path class="cls-6" d="m24.27,7.97l.05.17s.32.55.87,1.48l.17.12.13-.59-.81-1.1-.41-.07Z"/><path class="cls-6" d="m20.32,12.68l-.05-.17s-.32-.55-.87-1.48l-.17-.12-.13.59.81,1.1.41.07Z"/><path class="cls-6" d="m20.51,9.91l2.37-1.39s.31-.13.52.21l.86,1.48s.15.28-.2.52l-2.36,1.37s-.28.14-.49-.16l-.88-1.52s-.17-.26.19-.5Z"/><path class="cls-2" d="m21.58,9.76l.09-.05s.03.09.09.08c0,0,.03-.16.14-.21,0,0,.15-.06.28.03,0,0,.04.03.09-.01,0,0,.04-.04,0-.09l-.07-.08.1-.06s.16.16.17.52c0,0,0,.26.16.46,0,0,.27.34.05.47,0,0-.15.12-.3-.14,0,0-.06-.14-.03-.4,0,0,.09-.54-.01-.54,0,0-.14.33-.42.19,0,0-.12-.03-.07.13l.07.14-.09.05-.24-.48Z"/></g><path class="cls-22" d="m68.44,11.31c0,2.04-1.65,3.7-3.7,3.7s-3.7-1.65-3.7-3.7,1.65-3.7,3.7-3.7,3.7,1.65,3.7,3.7Z"/><path class="cls-41" d="m64.79,7.76c1.36,0,2.54.75,3.16,1.85-.6-1.17-1.82-1.97-3.23-1.97-2.01,0-3.63,1.63-3.63,3.64,0,.65.17,1.26.47,1.79-.26-.5-.41-1.07-.41-1.67,0-2.01,1.63-3.64,3.64-3.64Z"/><polygon class="cls-11" points="65.86 10.35 67.44 11.14 65.85 11.92 65.67 13.15 65.13 13.21 64.37 12.41 62.61 12.7 63.42 11.14 62.63 9.59 64.36 9.87 65.59 8.62 65.86 10.35"/><g class="cls-32"><polygon class="cls-10" points="65.59 8.52 65.63 8.66 65.42 9.16 64.43 10.13 62.98 9.86 62.56 9.55 64.35 9.81 65.59 8.52"/><polygon class="cls-10" points="65.99 10.27 65.75 10.41 65.72 10.47 67.02 11.12 67.21 11.13 67.51 11.14 65.99 10.27"/><polygon class="cls-10" points="62.56 12.74 62.89 12.46 62.97 12.42 63.68 11.12 63.34 11.13 62.56 12.74"/><polygon class="cls-12" points="65.63 8.5 65.51 8.83 65.42 9.16 65.64 10.52 65.71 10.45 65.91 10.31 65.63 8.5"/><polygon class="cls-28" points="67.55 11.18 67.51 11.14 67.1 11.12 66.95 11.14 65.68 11.77 65.92 11.97 67.55 11.18"/><polygon class="cls-12" points="64.3 12.54 64.36 12.47 64.4 12.17 64.5 12.14 65.35 13 65.39 13.17 65.08 13.29 64.3 12.54"/><polygon class="cls-12" points="63.29 11.12 63.38 11.13 63.72 11.13 63.11 9.95 63.07 9.88 62.64 9.59 62.56 9.55 63.29 11.12"/></g><polygon class="cls-37" points="65.52 8.81 65.76 10.41 67.22 11.12 65.76 11.84 65.59 13.1 65.23 13.11 65.14 13.05 64.39 12.28 62.78 12.55 63.54 11.13 62.8 9.71 64.4 9.96 65.52 8.81"/><g class="cls-26"><polygon class="cls-5" points="65.54 8.78 65.43 9.11 64.43 10.12 63.04 9.89 62.98 9.85 62.74 9.66 64.38 9.91 65.54 8.78"/><polygon class="cls-5" points="65.63 10.52 65.77 10.41 65.85 10.41 67.36 11.13 66.85 11.14 65.63 10.52"/><polygon class="cls-5" points="63.47 11.14 63.66 11.14 63.72 11.24 63.09 12.35 62.99 12.42 62.73 12.59 63.47 11.14"/></g><polygon class="cls-37" points="63 9.87 64.44 10.09 65.47 9.04 65.68 10.48 66.99 11.14 65.68 11.79 65.49 13.13 65.37 13.14 65.28 13.06 64.43 12.19 63 12.43 63.66 11.14 63 9.87"/><path class="cls-15" d="m42.95,10.87c0,2.05-1.66,3.72-3.72,3.72s-3.72-1.66-3.72-3.72,1.66-3.72,3.72-3.72,3.72,1.66,3.72,3.72Z"/><path class="cls-6" d="m42.77,10.86c0,1.96-1.59,3.55-3.55,3.55s-3.55-1.59-3.55-3.55,1.59-3.55,3.55-3.55,3.55,1.59,3.55,3.55Z"/><path class="cls-16" d="m42.14,12.6c-.06-.36-.27-.64-.38-.76.05-.06.29-.41.16-1.47.1-.05.29-.2.45-.58.2.19.4.6.4.6-.04-.34-.36-.88-.36-.88l-.08.22c-.16.38-.34.53-.44.58-.07-.05-.41-.29-1.13-.54-.13-.66-.53-1.18-.7-1.37.07-.06.29-.29.48-.52.15,0,.48.05,1.1.39l.03-.05c-.58-.31-.91-.39-1.08-.39-.03-.02-.62-.47-1.2-.51,0,0-.54-.04-1.13.3-.15-.04-.46-.06-.96.14l.02.05c.48-.19.77-.17.92-.14.04.07.16.3.28.59-.16.13-.75.64-.88,1.27-.61-.03-1.08.29-1.2.38-.18-.4-.27-.9-.27-.91h-.05s.1.54.29.95c-.25.57-.13,1.32-.1,1.46-.13.07-.42.31-.44.95h.05c.02-.62.3-.84.42-.91.5.32.93.51,1.04.55.07.24.27.81.67,1.22l.04-.04c-.39-.41-.59-.98-.66-1.21.27-.48.69-.99.8-1.12.24,0,1.02-.01,1.66.15.08.11.32.51.62,1.22-.05.15-.2.5-.6.9l.04.04c.39-.4.55-.74.61-.91.12,0,.6,0,1.16-.39.1.12.32.41.37.77-.05.14-.15.42-.33.6l.18-.06s.27-.31.5-.81c0,0-.23.28-.3.22Zm-2.26-1.65c-.63-.15-1.37-.15-1.64-.15-.24-.48-.48-1.03-.56-1.21.11-.63.74-1.18.88-1.29.13,0,.69,0,1.45.12.16.17.57.69.7,1.37-.06.1-.34.52-.84,1.16Z"/><rect class="cls-19" x="11.32" y="13.05" width="71.9" height="7.78"/><path class="cls-22" d="m53.28,4.52c1.02,3.19-.74,6.6-3.92,7.62-3.19,1.02-6.6-.73-7.62-3.92-1.02-3.19.73-6.6,3.92-7.62,3.19-1.02,6.6.73,7.62,3.92Z"/><path class="cls-25" d="m45.82.81c2.12-.68,4.34-.11,5.86,1.3-1.53-1.52-3.83-2.16-6.02-1.46-3.13,1-4.86,4.36-3.86,7.49.33,1.01.9,1.88,1.63,2.55-.65-.65-1.17-1.46-1.47-2.4-1-3.13.72-6.49,3.86-7.49Z"/><polygon class="cls-11" points="48.77 4.32 51.64 4.75 49.55 6.76 50.05 9.76 47.47 8.27 44.88 9.6 45.37 6.76 43.36 4.74 46.19 4.31 47.48 1.75 48.77 4.32"/><g class="cls-38"><polygon class="cls-10" points="47.44 1.59 47.57 1.78 47.49 2.68 46.43 4.69 44.03 4.98 43.23 4.72 46.14 4.22 47.44 1.59"/><polygon class="cls-10" points="48.94 4.12 48.63 4.47 48.62 4.58 50.97 4.94 51.27 4.85 51.75 4.71 48.94 4.12"/><polygon class="cls-10" points="44.81 9.69 45.2 9.1 45.3 8.98 45.75 6.61 45.24 6.79 44.81 9.69"/><polygon class="cls-12" points="47.49 1.54 47.47 2.12 47.49 2.68 48.52 4.69 48.59 4.54 48.84 4.23 47.49 1.54"/><polygon class="cls-28" points="51.83 4.76 51.74 4.73 51.09 4.9 50.87 5 49.21 6.62 49.68 6.82 51.83 4.76"/><polygon class="cls-12" points="47.43 8.51 47.49 8.37 47.41 7.88 47.55 7.79 49.76 9.3 50.14 9.89 50.23 10.05 47.43 8.51"/><polygon class="cls-12" points="45.15 6.8 45.29 6.78 45.83 6.61 44.28 5.06 44.18 4.98 43.36 4.74 43.23 4.71 45.15 6.8"/></g><polygon class="cls-37" points="47.47 2.08 48.65 4.46 51.29 4.84 49.37 6.69 49.85 9.43 47.44 8.07 45.07 9.28 45.55 6.69 43.68 4.84 46.3 4.44 47.47 2.08"/><g class="cls-4"><polygon class="cls-5" points="47.49 2.02 47.49 2.59 46.43 4.67 44.15 5.01 44.02 4.98 43.55 4.79 46.25 4.37 47.49 2.02"/><polygon class="cls-5" points="48.5 4.69 48.66 4.45 48.79 4.41 51.5 4.79 50.71 5.05 48.5 4.69"/><polygon class="cls-5" points="45.43 6.74 45.73 6.66 45.89 6.78 45.46 8.82 45.32 8.98 45.01 9.38 45.43 6.74"/></g><polygon class="cls-37" points="44.07 5 46.42 4.62 47.51 2.47 48.57 4.61 50.94 4.98 49.22 6.65 49.66 9.09 47.46 7.9 45.36 8.99 45.74 6.65 44.07 5"/><path class="cls-17" d="m48.99,15.12h9.39s-.18,4.28-.18,4.28c0,0-.81-.09-2.44-.11,0,0-.38,5.02-.45,7.66h-3.24s-.02-4.09-.45-7.64c0,0-1.45,0-2.46.14l-.17-4.32Z"/><path class="cls-35" d="m48.74,14.73h9.39s-.18,4.28-.18,4.28c0,0-.81-.09-2.44-.11,0,0-.38,5.02-.45,7.66h-3.24s-.02-4.09-.45-7.64c0,0-1.45,0-2.46.14l-.17-4.32Z"/><path class="cls-17" d="m65.12,14.95h-4.68c-.66,4.55-2.61,11.94-2.61,11.94h2.24s.45-1.49.45-1.49l.83,1.68c1.19-.95,1.91-1.21,1.91-1.21l.28,1h4.23l-2.66-11.93Zm-4.35,9.7s.49-1.7,1.04-3.06c0,0,.78,1.56,1.09,2.73,0,0-.73.28-2.14.33Z"/><path class="cls-35" d="m64.64,14.73h-4.68c-.66,4.55-2.61,11.94-2.61,11.94h2.24s.45-1.49.45-1.49l.83,1.68c1.19-.95,1.91-1.21,1.91-1.21l.28,1h4.23l-2.66-11.93Zm-4.35,9.7s.49-1.7,1.04-3.06c0,0,.78,1.56,1.09,2.73,0,0-.73.28-2.14.33Z"/><path class="cls-17" d="m76.32,14.65s-8.76-1.78-8.54,6.47c0,0,0,1.9,1.52,3.8,0,0,2.82,3.14,6.78,1.63l.46-2.31s-.69.37-1.42.34c0,0-2.44.18-2.52-2.58,0,0-.04-3.23,3.99-2.48l-.27-4.87Z"/><path class="cls-35" d="m75.97,14.41s-8.76-1.78-8.54,6.47c0,0,0,1.9,1.52,3.8,0,0,2.82,3.14,6.79,1.63l.46-2.31s-.69.37-1.42.34c0,0-2.44.18-2.52-2.58,0,0-.04-3.23,3.99-2.48l-.27-4.87Z"/><path class="cls-17" d="m44.2,19.54l-.26-4.9s-4.21-.88-6.66,1.32c0,0-2.16,1.64-1.9,5.11,0,0,.02,3.02,2.68,4.83,0,0,2.08,1.66,5.65.67l.49-2.33s-.78.4-1.63.34c0,0-2.57,0-2.33-2.86,0,0,.3-3,3.98-2.18Z"/><path class="cls-35" d="m43.83,19.3l-.26-4.9s-4.21-.88-6.66,1.32c0,0-2.16,1.64-1.9,5.11,0,0,.02,3.02,2.68,4.83,0,0,2.08,1.66,5.65.67l.49-2.33s-.78.4-1.63.34c0,0-2.57,0-2.33-2.86,0,0,.3-3,3.98-2.18Z"/><polygon class="cls-17" points="29.51 14.98 34.33 14.98 33.86 26.87 30 26.85 29.51 14.98"/><polygon class="cls-35" points="29.22 14.7 34.03 14.7 33.56 26.58 29.71 26.56 29.22 14.7"/><path class="cls-17" d="m28.17,15.04l-.18,4.31s-1.03-.14-2.44-.14c0,0-.33,3.78-.5,7.72h-3.18s-.08-3.26-.46-7.73c0,0-.99.04-2.47.16l-.14-4.32,9.37.02Z"/><path class="cls-35" d="m27.81,14.7l-.18,4.31s-1.03-.14-2.44-.14c0,0-.33,3.78-.5,7.72h-3.18s-.08-3.26-.46-7.74c0,0-.99.04-2.47.16l-.14-4.32,9.37.02Z"/><text class="cls-20" transform="translate(36.08 38.81)"><tspan x="0" y="0">P</tspan><tspan class="cls-9" x="8.05" y="0">A</tspan><tspan x="16.23" y="0">Y</tspan></text></svg>