<?xml version="1.0" encoding="UTF-8"?><svg id="Layer_2" xmlns="http://www.w3.org/2000/svg" xmlns:xlink="http://www.w3.org/1999/xlink" viewBox="0 0 93.21 41.69"><defs><style>.cls-1{fill:url(#linear-gradient-2);}.cls-2{fill:#151011;}.cls-3{fill:#000105;}.cls-4{clip-path:url(#clippath-11);}.cls-5{fill:#c7a208;}.cls-6{fill:#fff;}.cls-7{fill:#622d06;}.cls-8{fill:#833e05;}.cls-9{fill:#9e8008;}.cls-10{fill:#bb9807;}.cls-11{fill:#a98909;}.cls-12{fill:#144a1c;}.cls-13{clip-path:url(#clippath-2);}.cls-14{fill:#020001;}.cls-15{fill:#020202;}.cls-16{fill:#c27c07;}.cls-17{clip-path:url(#clippath-6);}.cls-18{fill:#c00;}.cls-19{clip-path:url(#clippath-7);}.cls-20{fill:#bc0000;}.cls-21{fill:#ab8a09;}.cls-22{clip-path:url(#clippath-1);}.cls-23{clip-path:url(#clippath-4);}.cls-24{fill:url(#linear-gradient-5);}.cls-25{clip-path:url(#clippath-9);}.cls-26{clip-path:url(#clippath);}.cls-27{fill:#ad8c09;}.cls-28{clip-path:url(#clippath-3);}.cls-29{fill:#415c4b;}.cls-30{fill:#050002;}.cls-31{clip-path:url(#clippath-8);}.cls-32{fill:url(#linear-gradient-3);}.cls-33{clip-path:url(#clippath-5);}.cls-34{fill:#eea803;}.cls-35{fill:url(#linear-gradient);}.cls-36{fill:#b49207;}.cls-37{clip-path:url(#clippath-10);}.cls-38{fill:#948a88;}.cls-39{fill:#fc0305;}.cls-40{fill:url(#linear-gradient-4);}</style><linearGradient id="linear-gradient" x1="-31.47" y1="12.06" x2="-26.09" y2="12.06" gradientTransform="translate(26.1 -14.96) rotate(-31.27)" gradientUnits="userSpaceOnUse"><stop offset="0" stop-color="#ab8a09"/><stop offset=".06" stop-color="#ac8c0d"/><stop offset=".12" stop-color="#b0921a"/><stop offset=".19" stop-color="#b89c2f"/><stop offset=".25" stop-color="#c2aa4d"/><stop offset=".32" stop-color="#cfbc73"/><stop offset=".39" stop-color="#dfd2a2"/><stop offset=".46" stop-color="#f1ecd8"/><stop offset=".5" stop-color="#fff"/><stop offset=".5" stop-color="#fefdfc"/><stop offset=".52" stop-color="#eee8ce"/><stop offset=".54" stop-color="#e0d4a5"/><stop offset=".57" stop-color="#d3c280"/><stop offset=".59" stop-color="#c8b35f"/><stop offset=".62" stop-color="#bfa644"/><stop offset=".66" stop-color="#b79b2e"/><stop offset=".7" stop-color="#b1931d"/><stop offset=".74" stop-color="#ad8e11"/><stop offset=".81" stop-color="#ab8a0a"/><stop offset="1" stop-color="#ab8a09"/></linearGradient><clipPath id="clippath"><polygon class="cls-10" points="8.65 9.75 10.03 9.63 9.28 10.8 9.85 12.13 8.49 11.73 7.43 12.64 7.34 11.26 6.18 10.55 7.45 10.04 7.76 8.7 8.65 9.75"/></clipPath><clipPath id="clippath-1"><polygon class="cls-36" points="7.8 8.85 8.61 9.83 9.88 9.71 9.19 10.78 9.72 12.01 8.45 11.64 7.49 12.47 7.42 11.21 6.34 10.56 7.52 10.08 7.8 8.85"/></clipPath><linearGradient id="linear-gradient-2" x1="54.47" y1="170.65" x2="59.84" y2="170.65" gradientTransform="translate(80.73 -167.89) rotate(15.82)" xlink:href="#linear-gradient"/><clipPath id="clippath-2"><polygon class="cls-10" points="90.19 12.17 91.21 13.09 89.85 13.35 89.26 14.67 88.62 13.4 87.24 13.24 88.19 12.24 87.92 10.9 89.16 11.48 90.35 10.8 90.19 12.17"/></clipPath><clipPath id="clippath-3"><polygon class="cls-36" points="90.26 10.93 90.1 12.19 91.05 13.04 89.8 13.27 89.26 14.49 88.67 13.31 87.4 13.17 88.28 12.26 88.02 11.03 89.17 11.56 90.26 10.93"/></clipPath><linearGradient id="linear-gradient-3" x1="17.38" y1="14.43" x2="27.32" y2="14.43" gradientTransform="matrix(1,0,0,1,0,0)" xlink:href="#linear-gradient"/><clipPath id="clippath-4"><polygon class="cls-10" points="24.28 14.42 26.58 15.56 24.28 16.69 24.01 18.47 23.23 18.56 22.12 17.4 19.58 17.82 20.76 15.56 19.61 13.31 22.11 13.72 23.89 11.91 24.28 14.42"/></clipPath><clipPath id="clippath-5"><polygon class="cls-36" points="23.79 12.19 24.14 14.51 26.26 15.54 24.14 16.58 23.89 18.4 23.37 18.41 23.24 18.33 22.15 17.22 19.83 17.6 20.93 15.55 19.86 13.49 22.17 13.86 23.79 12.19"/></clipPath><clipPath id="clippath-6"><path class="cls-39" d="m62.91,13.08c0,2.78-2.25,5.03-5.03,5.03s-5.03-2.25-5.03-5.03,2.25-5.03,5.03-5.03,5.03,2.25,5.03,5.03Z"/></clipPath><clipPath id="clippath-7"><path class="cls-12" d="m16.74,10.01c1.63,1.39,1.83,3.84.44,5.47-1.39,1.63-3.84,1.83-5.47.44-1.63-1.39-1.83-3.84-.44-5.47,1.39-1.63,3.84-1.83,5.47-.44Z"/></clipPath><linearGradient id="linear-gradient-4" x1="64.52" y1="13.02" x2="73.42" y2="13.02" gradientTransform="matrix(1,0,0,1,0,0)" xlink:href="#linear-gradient"/><clipPath id="clippath-8"><polygon class="cls-10" points="70.69 13.02 72.75 14.03 70.69 15.05 70.45 16.64 69.75 16.72 68.76 15.68 66.48 16.06 67.54 14.03 66.51 12.03 68.75 12.39 70.34 10.77 70.69 13.02"/></clipPath><clipPath id="clippath-9"><polygon class="cls-36" points="70.25 11.02 70.57 13.1 72.46 14.02 70.57 14.95 70.34 16.58 69.88 16.59 69.76 16.52 68.79 15.52 66.71 15.87 67.7 14.03 66.74 12.18 68.8 12.52 70.25 11.02"/></clipPath><linearGradient id="linear-gradient-5" x1="24.31" y1="2.21" x2="38.89" y2="2.21" gradientTransform="translate(15.09 13.6) rotate(-17.76)" xlink:href="#linear-gradient"/><clipPath id="clippath-10"><polygon class="cls-10" points="48.55 5.2 52.26 5.76 49.55 8.37 50.2 12.25 46.86 10.32 43.49 12.04 44.13 8.36 41.53 5.74 45.19 5.19 46.88 1.87 48.55 5.2"/></clipPath><clipPath id="clippath-11"><polygon class="cls-36" points="46.86 2.3 48.39 5.38 51.81 5.88 49.32 8.28 49.94 11.83 46.82 10.06 43.75 11.63 44.37 8.27 41.95 5.87 45.34 5.36 46.86 2.3"/></clipPath></defs><path class="cls-8" d="m74.28,16.8v-.28s.48-2.79,3.17-4.7c0,0,1.36-1.06,3.52-1.37,0,0,3.01-.43,4.17,1.28,0,0,.8,1.1-.45,3.18,0,0-.49.93-1.41,1.74l-9.01.16Z"/><path class="cls-38" d="m74.52,16.99c.21-1.87,1.29-3.53,2.69-4.71,1.41-1.2,3.32-1.76,5.15-1.63.46.03.92.09,1.36.2.44.12.89.29,1.22.64.08.09.15.18.2.29.04.11.06.23.07.35.02.23-.02.47-.09.69-.14.45-.39.84-.68,1.2-.59.71-1.33,1.27-2.09,1.78-.77.5-1.57.94-2.39,1.35l-.13-.28c.83-.36,1.65-.75,2.42-1.23.77-.47,1.52-1.01,2.1-1.69.29-.34.54-.72.68-1.15.07-.21.11-.43.1-.66,0-.11-.02-.22-.06-.32-.04-.09-.11-.19-.18-.27-.31-.32-.75-.49-1.18-.59-.44-.1-.89-.14-1.34-.15-.9-.02-1.81.06-2.67.34-.85.28-1.67.7-2.34,1.29-.69.58-1.28,1.27-1.74,2.05-.45.77-.78,1.64-.87,2.51h-.22Z"/><path class="cls-7" d="m81.68,12.3s.06.14-.5.1c0,0-.07.48-.24.74h.33s-.07.38-.29.68c0,0-.2.31-.44.37,0,0-.25.06-.46-.04l.32-.24h.12s.16-.1.24-.32c0,0-.48.31-.87.48,0,0-.19.01-.3,0,0,0-.45.53-1.43.74,0,0-.18.07-.34.19,0,0-.99.89-1.25.77l.23-.41h.11l.07-.09s.51-.18.73-.68c0,0,.38.06.62-.3,0,0,0-.29.04-.47,0,0-.04-.11-.25-.03,0,0-.41.26-.64-.19,0,0,.44.09.59,0,0,0,.16-.04.38,0,0,0,.13-.28.6-.31,0,0,1.3-.12,1.65-1.06,0,0-.26-.11-.4-.34,0,0,.15-.03.35,0,0,0-.07-.09-.25-.19,0,0-.17-.18-.29-.29,0,0,.17.03.37.17,0,0,.37.13.54.32,0,0,.15-.01.33.15l.28.18s.07.04.05.09Z"/><path class="cls-8" d="m80.8,13.21s.15-.04.37.02c0,0-.09.62-.65.9,0,0-.17.03-.26-.02,0,0,.09-.08.14-.12h.15s.32-.2.34-.54c0,0-.16.04-.46.24,0,0-.35.2-.51.3h-.34s-.53.51-1.39.73c0,0-.18.04-.48.27,0,0-.77.71-.99.67,0,0,.07-.12.14-.23h.1s.08-.11.08-.11c0,0,.48-.17.75-.65,0,0,.47,0,.63-.36v-.03s-.04-.33.04-.49c0,0-.07-.19-.52,0,0,0-.22.07-.34-.15,0,0,.17.05.27.06,0,0,.1,0,.3-.08,0,0,.15-.05.36.04,0,0,.14-.3.59-.33,0,0,1.28-.09,1.67-1.13,0,0-.24-.12-.39-.29,0,0,.2-.03.4,0,0,0-.08-.12-.23-.2,0,0-.24-.16-.33-.26,0,0,.25.16.46.23,0,0,.14.06.3.23,0,0,.12,0,.15.01,0,0,.28.16.47.3h-.07s.03.07.03.07c0,0-.2.08-.46,0,0,0-.07.55-.33.88Z"/><path class="cls-7" d="m81.07,12.04s.1-.03.22.13c0,0-.05-.04-.18-.04,0,0-.05-.05-.05-.08Z"/><path class="cls-7" d="m80.59,12.01h.22s.05.05.11.13c0,0-.24-.04-.33-.13Z"/><path class="cls-7" d="m80.86,12.65s-.07.19-.25.37c0,0-.08.08.08.18,0,0-.09-.1.06-.24,0,0,.1-.15.11-.3Z"/><path class="cls-7" d="m80.18,13.37s.21.01.38.07c0,0-.21,0-.33.1,0,0-.36.31-1.17.33,0,0-.04.01-.06.07l-.16.29.1-.36s.02-.16.25-.13c0,0,.46.03.99-.37Z"/><path class="cls-7" d="m80.89,14.88h0s0-.03,0-.03c0,0,.02,0,.03.01.01.01.03.02.04.02.01,0,.02,0,.04,0,.01,0,.03-.02.04-.03,0-.02.01-.03.01-.05,0-.02,0-.03-.02-.03,0,0-.02,0-.05,0-.03,0-.05,0-.06-.01-.02-.01-.02-.03-.03-.06,0-.03,0-.06.03-.09.02-.03.04-.05.08-.07,0,0,.02,0,.03-.01.01,0,.02,0,.03-.01h0s0,0,0,0c0,0,.02,0,.02,0,0,0,0,.03,0,.05,0,.02,0,.02-.01.03,0,0-.01,0-.02-.01-.01,0-.02-.01-.03-.02,0,0-.02,0-.03,0-.01,0-.02.02-.03.03,0,.01-.01.03-.01.04,0,.02,0,.03.02.03,0,0,.02,0,.05,0,.03,0,.05,0,.06.01.01,0,.02.02.02.03,0,.01,0,.02,0,.03h0s0,.04,0,.05c0,.02-.01.03-.02.05-.02.03-.05.06-.08.08,0,0-.02,0-.04.01s-.03,0-.03,0h-.01s-.02.01-.02,0c0-.01,0-.03,0-.06Z"/><path class="cls-7" d="m81.28,14.63s-.04.02-.04.03c0,.01-.01.03-.01.06,0,.01,0,.02,0,.02,0,0,0,0,0,.01,0,0,0,0,0,0,0,0-.01.02-.04.03-.02.01-.04.02-.05.02,0,0-.01,0-.01,0h0s0-.01,0-.02c0,0,.01-.02.01-.02,0-.02.03-.09.06-.2,0-.03.01-.06.02-.08,0-.03.01-.05.01-.06,0-.02.02-.04.04-.05h0s.02,0,.03.02c0,.02.02.05.04.1.01.05.03.09.05.13,0,.01.01.02.02.02,0,0,0,0,.01,0,0,0,0,0,0,.01,0,.01,0,.02-.03.03l-.04.02s-.04.02-.05.02c0,0-.01,0-.01,0,0,0,0,0,0-.01,0,0,0,0,0,0,0,0,0-.02,0-.03,0-.03,0-.04-.01-.05,0,0-.02,0-.05.02Zm-.03-.02h0s0,0,0,0h.02s.03-.03.03-.03,0,0,0-.01c0,0,0-.01,0-.02,0,0,0-.02-.01-.04,0-.02,0-.03-.01-.04,0,0,0,0,0,0,0,0,0,.02-.01.06,0,.04-.01.06-.01.06,0,.02,0,.03,0,.04h0s0,0,0,0Z"/><path class="cls-7" d="m81.65,14.34s0-.07,0-.09c0,0,0-.01-.02-.01,0,0-.01,0-.01-.01s.03-.02.08-.05h.02s.03-.02.03-.02c.06-.03.1-.03.11,0,0,0,0,.02,0,.04,0,.03-.01.06-.04.1-.01.01-.02.02-.02.03,0,0,0,0,0,0,0,0,.01.01.02.03.01.02.02.03.03.04,0,0,.01.01.02.01.02,0,.02,0,.02.01,0,0,0,.01,0,.02,0,0-.01.01-.02.02h0s-.04.02-.05.01c-.01,0-.02-.02-.04-.05-.01-.03-.02-.04-.03-.04,0,0-.02-.01-.03,0,0,0-.01.02,0,.04,0,.03,0,.05,0,.06,0,0,0,.01.01.02,0,0,.01.01.01.01,0,0-.02.02-.05.04-.03.02-.06.03-.06.03-.01,0-.02,0-.02-.01,0,0,0-.01.01-.02,0,0,.01-.02.01-.02,0,0,0-.03,0-.05h0s0-.02,0-.02c0,0,0-.01,0-.02v-.02s0-.07,0-.08Zm.08-.15s-.01.01-.01.02c0,0,0,.02,0,.04v.04s0,0,0,0c0,.02,0,.04,0,.04,0,0,0,0,.02,0,.02,0,.03-.02.05-.04.01-.02.02-.04.02-.06h0s0-.04-.02-.05c-.01,0-.02,0-.04,0h-.01s0,0,0,0Z"/><path class="cls-7" d="m82.09,14.36s-.04.02-.06.01c-.02,0-.03-.01-.04-.02,0-.01-.01-.03-.02-.05,0-.02,0-.06,0-.12,0-.06,0-.09,0-.1,0,0,0-.01-.02-.01,0,0-.01,0-.01,0,0,0,0-.02,0-.02,0,0,.02-.01.03-.02l.06-.03s.02,0,.02,0c0,0,0,.01,0,.03,0,.01,0,.03-.01.04,0,.02,0,.04,0,.08v.03s0,.04,0,.05c0,.07.02.1.05.09,0,0,.02,0,.03-.01.01,0,.02-.02.03-.03,0-.01.02-.03.02-.04,0-.02.01-.07.01-.12,0-.06,0-.1,0-.12,0,0,0-.02-.01-.03,0,0,0-.01,0-.02,0,0,.02-.02.05-.04h.02s.03-.02.03-.02c0,0,0,.02,0,.02-.01.02-.02.03-.02.03,0,.01,0,.05,0,.11,0,.06,0,.1,0,.12,0,.05-.02.09-.05.12-.02.02-.03.03-.05.04h-.02Z"/><path class="cls-7" d="m82.48,13.98s0-.01.01-.02c.01,0,.03-.02.06-.03.03-.02.05-.02.05,0,0,0,0,0,0,.02,0,.01-.01.02-.02.03,0,0,0,.02,0,.05,0,.03,0,.05-.01.06,0,0-.02.02-.03.03-.05.04-.08.05-.08.06h0s-.04.02-.06.02c-.02,0-.04,0-.05-.02-.03-.02-.04-.06-.05-.11,0-.06.01-.11.04-.16.01-.03.03-.05.05-.07.02-.02.04-.04.06-.05h0s.03-.02.05-.02c.02,0,.03,0,.03,0h0s0,0,0,0c.01,0,.02.01.02.06,0,.01,0,.02-.01.03,0,0-.01,0-.02,0-.01,0-.02-.01-.03-.01-.02,0-.03,0-.05,0-.01,0-.03.02-.04.03-.01.01-.02.03-.03.05-.02.04-.03.08-.03.12,0,.05,0,.08.03.1,0,.01.02.02.03.02.01,0,.03,0,.04,0,.01,0,.02-.02.03-.03,0-.01.01-.03.01-.05,0-.02,0-.04-.01-.05,0,0,0-.01,0-.01Z"/><path class="cls-7" d="m82.67,13.77s0-.04,0-.05c0,0,0-.01-.02-.02,0,0-.01,0-.01-.01,0,0,0-.01.01-.02,0,0,.03-.02.08-.04l.04-.02s.07-.03.08-.02c.02,0,.03.03.03.06,0,.03-.01.06-.03.09-.01.01-.02.02-.02.02,0,0,0,0,.01,0,.02,0,.03,0,.04,0,.01.01.02.03.02.05h0s0,.07-.03.1c-.02.03-.05.05-.09.07l-.04.02h0s-.03.02-.03.02h-.02s0,.01,0,.01c-.02.01-.03.01-.03,0,0,0,0-.02.01-.03,0-.01.01-.02.02-.03,0-.01,0-.04,0-.08v-.02s0-.01,0-.01c0,0,0,0,0-.01h0s0-.02,0-.03h0s0-.06,0-.06Zm.07.13s0,.06,0,.07c0,0,.01,0,.03,0h0s.03-.02.04-.04c0-.02.01-.04.01-.06h0s0-.04-.02-.05c-.01,0-.03,0-.05,0h-.01s-.01.01-.01.02c0,0,0,.01,0,.02v.03s0,0,0,0h0Zm.02-.24s-.02.01-.02.02c0,0,0,.02,0,.04v.05s0,.03.01.02h0s0,0,0,0h0s.03-.02.04-.04c.01-.02.01-.04.01-.05h0s0-.03-.01-.04c0,0-.02,0-.03,0h0s-.01,0-.01,0Z"/><path class="cls-7" d="m83.05,13.72s-.02-.06-.06-.12c-.01-.02-.02-.03-.03-.03-.02-.01-.03-.02-.03-.03h0s.03-.03.08-.05h.01s.03-.02.03-.01c0,0,0,0,0,.01,0,0,0,.01,0,.02,0,.02.01.05.04.09,0,.01.01.02.01.02,0,0,.02-.03.03-.08,0-.03.01-.06.01-.07,0,0,0-.01,0-.02,0,0,0,0,0-.01,0,0,0-.02.03-.03h.01s.03-.02.04-.03c0,0,0,0,0,0,0,0,0,.02-.02.03-.01.02-.02.03-.02.04,0,.01-.02.05-.05.12-.02.04-.02.08-.02.11,0,.03,0,.05.01.06,0,0,0,0,.02.01,0,0,.01,0,.01.01,0,0-.03.02-.08.05l-.04.02s-.03,0-.03,0c0,0,0-.01.01-.02,0-.01.01-.02.02-.03,0-.02,0-.05,0-.08Z"/><path class="cls-21" d="m10.76,9.34c.83,1.37.39,3.15-.97,3.97-1.37.83-3.15.39-3.97-.97-.83-1.37-.39-3.14.97-3.97,1.37-.83,3.15-.39,3.97.97Z"/><path class="cls-35" d="m6.89,8.45c.91-.55,2-.53,2.87-.05-.88-.54-2.02-.58-2.96,0-1.34.82-1.77,2.57-.96,3.91.26.43.63.77,1.04,1-.38-.23-.71-.55-.95-.95-.82-1.34-.39-3.09.96-3.91Z"/><polygon class="cls-10" points="8.65 9.75 10.03 9.63 9.28 10.8 9.85 12.13 8.49 11.73 7.43 12.64 7.34 11.26 6.18 10.55 7.45 10.04 7.76 8.7 8.65 9.75"/><g class="cls-26"><polygon class="cls-9" points="7.73 8.63 7.81 8.71 7.87 9.13 7.6 10.18 6.52 10.58 6.12 10.55 7.42 10 7.73 8.63"/><polygon class="cls-9" points="8.71 9.64 8.6 9.83 8.61 9.89 9.74 9.79 9.87 9.72 10.08 9.6 8.71 9.64"/><polygon class="cls-9" points="7.41 12.69 7.52 12.37 7.56 12.3 7.5 11.15 7.28 11.29 7.41 12.69"/><polygon class="cls-11" points="7.75 8.6 7.8 8.87 7.87 9.13 8.57 9.95 8.59 9.87 8.67 9.7 7.75 8.6"/><polygon class="cls-27" points="10.12 9.61 10.07 9.61 9.79 9.76 9.7 9.83 9.11 10.77 9.35 10.81 10.12 9.61"/><polygon class="cls-11" points="8.49 11.84 8.51 11.77 8.41 11.55 8.47 11.5 9.66 11.95 9.91 12.18 9.97 12.25 8.49 11.84"/><polygon class="cls-11" points="7.24 11.3 7.31 11.28 7.54 11.14 6.65 10.6 6.59 10.57 6.18 10.55 6.12 10.55 7.24 11.3"/></g><polygon class="cls-36" points="7.8 8.85 8.61 9.83 9.88 9.71 9.19 10.78 9.72 12.01 8.45 11.64 7.49 12.47 7.42 11.21 6.34 10.56 7.52 10.08 7.8 8.85"/><g class="cls-22"><polygon class="cls-5" points="7.8 8.82 7.86 9.09 7.6 10.17 6.58 10.58 6.52 10.58 6.28 10.55 7.49 10.05 7.8 8.82"/><polygon class="cls-5" points="8.57 9.95 8.61 9.82 8.67 9.79 9.97 9.66 9.63 9.87 8.57 9.95"/><polygon class="cls-5" points="7.37 11.25 7.5 11.17 7.58 11.21 7.61 12.21 7.57 12.3 7.47 12.52 7.37 11.25"/></g><polygon class="cls-36" points="6.54 10.59 7.59 10.15 7.86 9.03 8.59 9.91 9.73 9.81 9.12 10.78 9.6 11.87 8.44 11.56 7.58 12.3 7.5 11.17 6.54 10.59"/><path class="cls-21" d="m91.92,13.44c-.44,1.54-2.04,2.43-3.57,1.99-1.54-.44-2.43-2.04-1.99-3.57.44-1.54,2.03-2.43,3.57-1.99,1.54.44,2.43,2.04,1.99,3.57Z"/><path class="cls-1" d="m89.94,9.99c1.02.29,1.75,1.1,1.99,2.07-.21-1.01-.95-1.87-2.01-2.17-1.51-.43-3.09.45-3.51,1.96-.14.49-.14.98-.03,1.45-.09-.43-.08-.89.05-1.34.43-1.51,2-2.39,3.51-1.96Z"/><polygon class="cls-10" points="90.19 12.17 91.21 13.09 89.85 13.35 89.26 14.67 88.62 13.4 87.24 13.24 88.19 12.24 87.92 10.9 89.16 11.48 90.35 10.8 90.19 12.17"/><g class="cls-13"><polygon class="cls-9" points="90.38 10.73 90.38 10.84 90.11 11.18 89.16 11.7 88.13 11.18 87.87 10.86 89.17 11.43 90.38 10.73"/><polygon class="cls-9" points="90.31 12.13 90.09 12.19 90.05 12.23 90.9 12.99 91.04 13.04 91.27 13.11 90.31 12.13"/><polygon class="cls-9" points="87.19 13.26 87.5 13.12 87.57 13.1 88.38 12.28 88.13 12.22 87.19 13.26"/><polygon class="cls-11" points="90.41 10.72 90.25 10.95 90.11 11.18 89.99 12.25 90.05 12.21 90.24 12.15 90.41 10.72"/><polygon class="cls-27" points="91.29 13.15 91.26 13.11 90.96 13.01 90.84 12.99 89.75 13.2 89.89 13.4 91.29 13.15"/><polygon class="cls-11" points="88.55 13.48 88.61 13.44 88.7 13.22 88.78 13.23 89.26 14.41 89.26 14.75 89.25 14.83 88.55 13.48"/><polygon class="cls-11" points="88.09 12.2 88.15 12.23 88.41 12.3 88.2 11.28 88.18 11.21 87.92 10.9 87.87 10.86 88.09 12.2"/></g><polygon class="cls-36" points="90.26 10.93 90.1 12.19 91.05 13.04 89.8 13.27 89.26 14.49 88.67 13.31 87.4 13.17 88.28 12.26 88.02 11.03 89.17 11.56 90.26 10.93"/><g class="cls-28"><polygon class="cls-5" points="90.28 10.91 90.13 11.14 89.16 11.69 88.17 11.22 88.12 11.17 87.98 10.98 89.17 11.52 90.28 10.91"/><polygon class="cls-5" points="89.98 12.25 90.11 12.19 90.17 12.21 91.15 13.07 90.77 12.97 89.98 12.25"/><polygon class="cls-5" points="88.22 12.25 88.36 12.29 88.39 12.38 87.68 13.08 87.58 13.11 87.35 13.19 88.22 12.25"/></g><polygon class="cls-36" points="88.13 11.19 89.17 11.66 90.17 11.1 90.03 12.23 90.87 13 89.75 13.21 89.28 14.3 88.72 13.25 87.59 13.12 88.36 12.29 88.13 11.19"/><path class="cls-21" d="m28.02,15.8c0,2.96-2.4,5.35-5.35,5.35s-5.35-2.4-5.35-5.35,2.4-5.35,5.35-5.35,5.35,2.4,5.35,5.35Z"/><path class="cls-32" d="m22.74,10.67c1.97,0,3.68,1.08,4.58,2.68-.88-1.69-2.64-2.85-4.68-2.85-2.91,0-5.27,2.36-5.27,5.27,0,.94.25,1.82.68,2.59-.38-.72-.59-1.55-.59-2.42,0-2.91,2.36-5.27,5.27-5.27Z"/><polygon class="cls-10" points="24.28 14.42 26.58 15.56 24.28 16.69 24.01 18.47 23.23 18.56 22.12 17.4 19.58 17.82 20.76 15.56 19.61 13.31 22.11 13.72 23.89 11.91 24.28 14.42"/><g class="cls-23"><polygon class="cls-9" points="23.9 11.76 23.95 11.96 23.64 12.7 22.21 14.1 20.11 13.7 19.51 13.26 22.09 13.63 23.9 11.76"/><polygon class="cls-9" points="24.48 14.3 24.13 14.51 24.08 14.6 25.97 15.54 26.24 15.54 26.68 15.56 24.48 14.3"/><polygon class="cls-9" points="19.5 17.88 19.99 17.48 20.1 17.41 21.12 15.54 20.64 15.55 19.5 17.88"/><polygon class="cls-11" points="23.95 11.74 23.78 12.22 23.64 12.7 23.97 14.66 24.07 14.56 24.36 14.36 23.95 11.74"/><polygon class="cls-27" points="26.74 15.62 26.67 15.56 26.08 15.53 25.86 15.56 24.03 16.47 24.37 16.77 26.74 15.62"/><polygon class="cls-11" points="22.02 17.58 22.11 17.49 22.17 17.05 22.32 17.01 23.55 18.26 23.6 18.5 23.16 18.68 22.02 17.58"/><polygon class="cls-11" points="20.57 15.53 20.68 15.55 21.19 15.55 20.3 13.84 20.24 13.74 19.61 13.32 19.51 13.26 20.57 15.53"/></g><polygon class="cls-36" points="23.79 12.19 24.14 14.51 26.26 15.54 24.14 16.58 23.89 18.4 23.37 18.41 23.24 18.33 22.15 17.22 19.83 17.6 20.93 15.55 19.86 13.49 22.17 13.86 23.79 12.19"/><g class="cls-33"><polygon class="cls-5" points="23.82 12.14 23.67 12.62 22.22 14.09 20.21 13.75 20.11 13.69 19.76 13.41 22.15 13.79 23.82 12.14"/><polygon class="cls-5" points="23.95 14.66 24.15 14.5 24.28 14.5 26.45 15.55 25.72 15.56 23.95 14.66"/><polygon class="cls-5" points="20.82 15.56 21.09 15.57 21.19 15.71 20.28 17.32 20.12 17.42 19.75 17.67 20.82 15.56"/></g><polygon class="cls-36" points="20.14 13.72 22.22 14.04 23.72 12.53 24.03 14.61 25.93 15.56 24.03 16.51 23.75 18.45 23.58 18.46 23.45 18.34 22.21 17.09 20.15 17.43 21.1 15.56 20.14 13.72"/><polygon class="cls-29" points="28.63 16.4 28.77 16.84 30.28 16.91 30.67 16.65 30.72 16.56 31.99 15.8 32.44 15.5 32.11 14.56 31.25 14.39 28.63 16.4"/><path d="m30.3,16.98l-1.58-.07-.17-.53,2.69-2.06.92.19.37,1.02-.49.34-1.26.75-.06.09-.41.28Zm-1.47-.21l1.43.07.35-.24.07-.1,1.28-.76.4-.27-.3-.84-.78-.16-2.56,1.96.11.35Z"/><path class="cls-34" d="m25.46,14.39s.13,1.27.56,1.9l.53.53,2.63-.25,2.51-1.43,1.65-2.69,4.68-1.41,2.73-.46-.6-2.43-.88-1.33s-.38-.28-.69-.4l-12.87,7.74s-.2.13-.26.21Z"/><path class="cls-30" d="m26.53,16.89l-.55-.55c-.45-.65-.58-1.89-.58-1.94v-.03s.01-.02.01-.02c.06-.09.26-.22.28-.23l12.9-7.76h.03c.32.13.69.41.71.42l.02.02.89,1.35.62,2.5-2.81.47-4.64,1.4-1.66,2.69-2.54,1.44-2.66.25Zm-.99-2.48c.02.19.16,1.28.55,1.84l.5.49,2.58-.24,2.48-1.41,1.66-2.69,4.7-1.42,2.67-.45-.58-2.34-.87-1.3c-.06-.04-.36-.26-.63-.37l-12.84,7.72c-.06.04-.17.12-.22.17Z"/><path class="cls-29" d="m24.22,16.7l.23-.02.26-.15,1.1-.64,3.64-1.3-2.09,1.99s-2.67.26-3.14.13Z"/><path d="m24.72,16.81c-.26,0-.43-.01-.53-.04l-.37-.1.6-.06,1.35-.79,3.96-1.42-2.34,2.24h-.02s-1.73.17-2.64.17Zm-.11-.14s.07,0,.11,0c.85,0,2.39-.14,2.61-.16l1.83-1.75-3.32,1.19-1.23.72Z"/><path class="cls-39" d="m62.91,13.08c0,2.78-2.25,5.03-5.03,5.03s-5.03-2.25-5.03-5.03,2.25-5.03,5.03-5.03,5.03,2.25,5.03,5.03Z"/><g class="cls-17"><path class="cls-6" d="m57.74,7.64l.28.42s1.29.5,2.81.97l.2-.05.06-.5-3.35-.84Z"/><path class="cls-6" d="m63.02,13.05l-.16.25s-.36,1.01-.94,2.72l.04.35.9-.48.53-2.23-.35-.6Z"/><path class="cls-6" d="m63.02,13.05l-.16.25s-.36,1.01-.94,2.72l.04.35.9-.48.53-2.23-.35-.6Z"/><path class="cls-6" d="m52.72,13.11l.16-.25s.36-1.01.94-2.72l-.04-.35-.9.47-.53,2.23.35.6Z"/><path class="cls-6" d="m56.43,10.36l4.36,1.51s.5.25.29.89l-.95,2.71s-.19.49-.88.3l-4.33-1.52s-.48-.2-.33-.81l.99-2.78s.15-.5.84-.3Z"/><path class="cls-3" d="m59.02,12.04s-.03-.09-.25.02c0,0-.15.11-.56-.18l-.38-.26s-.29.67-.59,1.14l.18.11s.18-.21.47-.07c0,0,.28.23.05.68,0,0-.17.45-.45.43,0,0-.22-.03-.3-.18,0,0,.14-.03.22-.22,0,0,.1-.22-.11-.33,0,0-.27-.12-.42.2,0,0-.12.44.42.63,0,0,.85.33,1.14-.38,0,0,.23-.65-.22-.92,0,0-.26-.21-.7-.09,0,0,.15-.22.27-.5,0,0,.6.63,1.21-.1Z"/></g><path class="cls-12" d="m16.74,10.01c1.63,1.39,1.83,3.84.44,5.47-1.39,1.63-3.84,1.83-5.47.44-1.63-1.39-1.83-3.84-.44-5.47,1.39-1.63,3.84-1.83,5.47-.44Z"/><g class="cls-19"><path class="cls-6" d="m10.96,10.32l.39.05s.94-.51,1.98-1.17l.07-.14-.27-.29-2.17,1.55Z"/><path class="cls-6" d="m17.5,15.6l-.39-.05s-.94.51-1.98,1.17l-.07.14.27.29,2.17-1.55Z"/><path class="cls-6" d="m16.79,9.93l.06.22s.41.72,1.12,1.91l.22.16.17-.76-1.05-1.43-.53-.1Z"/><path class="cls-6" d="m11.66,16.03l-.06-.22s-.41-.72-1.12-1.91l-.22-.16-.17.76,1.05,1.43.53.1Z"/><path class="cls-6" d="m11.91,12.45l3.07-1.81s.4-.17.67.27l1.12,1.91s.2.36-.26.67l-3.06,1.78s-.36.18-.64-.21l-1.14-1.97s-.22-.34.24-.65Z"/><path class="cls-2" d="m13.3,12.26l.12-.06s.04.12.11.11c0,0,.04-.21.19-.27,0,0,.2-.08.36.04,0,0,.05.04.12-.02,0,0,.05-.05-.01-.12l-.09-.1.13-.08s.21.21.22.68c0,0,0,.33.21.6,0,0,.35.45.06.62,0,0-.2.15-.39-.19,0,0-.08-.18-.04-.52,0,0,.11-.7-.02-.7,0,0-.18.43-.54.24,0,0-.16-.04-.09.16l.09.18-.12.07-.3-.63Z"/></g><path class="cls-21" d="m74.04,14.26c0,2.65-2.15,4.79-4.79,4.79s-4.79-2.14-4.79-4.79,2.14-4.79,4.79-4.79,4.79,2.14,4.79,4.79Z"/><path class="cls-40" d="m69.31,9.66c1.76,0,3.29.97,4.1,2.4-.78-1.51-2.36-2.55-4.18-2.55-2.6,0-4.71,2.11-4.71,4.71,0,.84.22,1.63.61,2.32-.34-.65-.53-1.38-.53-2.16,0-2.6,2.11-4.71,4.71-4.71Z"/><polygon class="cls-10" points="70.69 13.02 72.75 14.03 70.69 15.05 70.45 16.64 69.75 16.72 68.76 15.68 66.48 16.06 67.54 14.03 66.51 12.03 68.75 12.39 70.34 10.77 70.69 13.02"/><g class="cls-31"><polygon class="cls-9" points="70.35 10.64 70.4 10.82 70.12 11.48 68.84 12.73 66.97 12.37 66.42 11.98 68.74 12.31 70.35 10.64"/><polygon class="cls-9" points="70.87 12.91 70.55 13.1 70.51 13.18 72.2 14.02 72.45 14.02 72.84 14.03 70.87 12.91"/><polygon class="cls-9" points="66.41 16.11 66.85 15.76 66.95 15.69 67.87 14.02 67.44 14.03 66.41 16.11"/><polygon class="cls-11" points="70.4 10.62 70.25 11.05 70.12 11.48 70.41 13.24 70.5 13.14 70.76 12.97 70.4 10.62"/><polygon class="cls-27" points="72.89 14.09 72.83 14.04 72.3 14.02 72.11 14.04 70.47 14.86 70.77 15.12 72.89 14.09"/><polygon class="cls-11" points="68.67 15.85 68.75 15.76 68.81 15.37 68.94 15.34 70.03 16.46 70.09 16.67 69.69 16.83 68.67 15.85"/><polygon class="cls-11" points="67.37 14.01 67.48 14.03 67.93 14.03 67.13 12.5 67.08 12.41 66.52 12.03 66.42 11.98 67.37 14.01"/></g><polygon class="cls-36" points="70.25 11.02 70.57 13.1 72.46 14.02 70.57 14.95 70.34 16.58 69.88 16.59 69.76 16.52 68.79 15.52 66.71 15.87 67.7 14.03 66.74 12.18 68.8 12.52 70.25 11.02"/><g class="cls-25"><polygon class="cls-5" points="70.28 10.98 70.14 11.41 68.85 12.72 67.05 12.42 66.96 12.37 66.65 12.12 68.78 12.45 70.28 10.98"/><polygon class="cls-5" points="70.4 13.24 70.58 13.09 70.69 13.09 72.64 14.03 71.98 14.03 70.4 13.24"/><polygon class="cls-5" points="67.59 14.04 67.84 14.05 67.93 14.17 67.11 15.61 66.97 15.7 66.64 15.92 67.59 14.04"/></g><polygon class="cls-36" points="66.99 12.4 68.85 12.68 70.19 11.32 70.47 13.19 72.17 14.04 70.47 14.88 70.22 16.63 70.06 16.63 69.95 16.53 68.84 15.4 66.99 15.71 67.85 14.04 66.99 12.4"/><path class="cls-14" d="m41,13.69c0,2.66-2.16,4.82-4.82,4.82s-4.82-2.16-4.82-4.82,2.16-4.82,4.82-4.82,4.82,2.16,4.82,4.82Z"/><path class="cls-6" d="m40.77,13.68c0,2.54-2.06,4.6-4.6,4.6s-4.6-2.06-4.6-4.6,2.06-4.6,4.6-4.6,4.6,2.06,4.6,4.6Z"/><path class="cls-15" d="m39.95,15.93c-.08-.47-.35-.83-.49-.98.06-.07.37-.53.21-1.91.13-.07.37-.26.59-.75.25.24.52.78.52.78-.05-.45-.47-1.14-.47-1.14l-.1.28c-.21.49-.45.69-.57.76-.09-.07-.53-.37-1.46-.7-.17-.86-.68-1.52-.91-1.78.08-.08.37-.37.62-.67.19,0,.62.07,1.42.5l.03-.06c-.75-.41-1.18-.5-1.4-.51-.03-.03-.8-.61-1.56-.67,0,0-.71-.05-1.46.39-.19-.05-.6-.08-1.25.19l.03.07c.62-.25,1-.22,1.19-.18.05.09.21.39.36.76-.21.17-.97.83-1.14,1.64-.8-.04-1.41.38-1.55.49-.23-.52-.35-1.17-.35-1.17h-.07s.13.7.37,1.24c-.33.74-.16,1.71-.13,1.89-.17.1-.54.4-.57,1.23h.07c.03-.81.39-1.09.54-1.18.64.42,1.2.65,1.34.71.09.31.35,1.05.87,1.58l.05-.05c-.51-.53-.77-1.27-.85-1.56.36-.62.9-1.28,1.04-1.46.32,0,1.32-.01,2.16.19.1.15.42.66.8,1.58-.07.19-.26.64-.78,1.17l.05.05c.51-.52.71-.96.79-1.18.16.01.77.01,1.51-.5.13.15.42.53.48,1-.06.18-.2.55-.43.77l.23-.08s.35-.4.64-1.04c0,0-.29.37-.39.29Zm-2.93-2.14c-.82-.2-1.78-.2-2.12-.19-.32-.62-.63-1.34-.73-1.57.14-.82.96-1.53,1.14-1.67.17,0,.9,0,1.88.16.2.23.74.89.91,1.77-.08.13-.44.68-1.09,1.51Z"/><rect class="cls-18" y="16.51" width="93.21" height="10.09"/><path class="cls-21" d="m54.38,5.46c1.32,4.13-.95,8.55-5.08,9.87-4.13,1.32-8.55-.95-9.87-5.08-1.32-4.13.95-8.55,5.08-9.87,4.13-1.32,8.55.95,9.87,5.08Z"/><path class="cls-24" d="m44.71.65c2.75-.88,5.62-.14,7.6,1.69-1.98-1.97-4.96-2.8-7.81-1.89-4.06,1.3-6.3,5.65-5,9.71.42,1.32,1.17,2.44,2.11,3.31-.85-.84-1.52-1.89-1.91-3.11-1.3-4.06.94-8.41,5-9.71Z"/><polygon class="cls-10" points="48.55 5.2 52.26 5.76 49.55 8.37 50.2 12.25 46.86 10.32 43.49 12.04 44.13 8.36 41.53 5.74 45.19 5.19 46.88 1.87 48.55 5.2"/><g class="cls-37"><polygon class="cls-9" points="46.82 1.66 46.99 1.91 46.88 3.08 45.51 5.68 42.4 6.06 41.36 5.72 45.14 5.07 46.82 1.66"/><polygon class="cls-9" points="48.77 4.95 48.37 5.39 48.34 5.54 51.4 6 51.79 5.89 52.4 5.71 48.77 4.95"/><polygon class="cls-9" points="43.41 12.16 43.92 11.39 44.04 11.24 44.63 8.17 43.96 8.4 43.41 12.16"/><polygon class="cls-11" points="46.89 1.6 46.86 2.34 46.88 3.08 48.22 5.68 48.31 5.49 48.63 5.08 46.89 1.6"/><polygon class="cls-27" points="52.51 5.77 52.39 5.72 51.55 5.95 51.27 6.08 49.11 8.18 49.72 8.44 52.51 5.77"/><polygon class="cls-11" points="46.8 10.63 46.88 10.45 46.78 9.81 46.96 9.7 49.82 11.65 50.32 12.42 50.44 12.63 46.8 10.63"/><polygon class="cls-11" points="43.85 8.41 44.03 8.39 44.74 8.16 42.73 6.16 42.59 6.05 41.53 5.74 41.35 5.71 43.85 8.41"/></g><polygon class="cls-36" points="46.86 2.3 48.39 5.38 51.81 5.88 49.32 8.28 49.94 11.83 46.82 10.06 43.75 11.63 44.37 8.27 41.95 5.87 45.34 5.36 46.86 2.3"/><g class="cls-4"><polygon class="cls-5" points="46.89 2.22 46.88 2.96 45.51 5.66 42.56 6.09 42.39 6.05 41.78 5.81 45.28 5.27 46.89 2.22"/><polygon class="cls-5" points="48.2 5.68 48.4 5.37 48.57 5.31 52.08 5.8 51.06 6.14 48.2 5.68"/><polygon class="cls-5" points="44.22 8.34 44.6 8.23 44.8 8.39 44.25 11.04 44.07 11.24 43.67 11.75 44.22 8.34"/></g><polygon class="cls-36" points="42.45 6.08 45.5 5.59 46.91 2.8 48.28 5.57 51.35 6.06 49.13 8.22 49.7 11.38 46.85 9.85 44.12 11.25 44.61 8.21 42.45 6.08"/><path class="cls-16" d="m48.82,19.2h12.17s-.23,5.55-.23,5.55c0,0-1.06-.12-3.17-.14,0,0-.49,6.51-.59,9.93h-4.2s-.02-5.3-.59-9.91c0,0-1.88,0-3.18.18l-.22-5.61Z"/><path class="cls-34" d="m48.51,18.7h12.17s-.23,5.55-.23,5.55c0,0-1.06-.12-3.17-.14,0,0-.49,6.51-.59,9.93h-4.2s-.02-5.3-.59-9.91c0,0-1.88,0-3.18.18l-.22-5.61Z"/><path class="cls-16" d="m69.73,18.98l-6.07-.02c-.86,5.91-3.38,15.5-3.38,15.5l2.9-.02.58-1.92,1.07,2.18c1.55-1.23,2.48-1.57,2.48-1.57l.37,1.3h5.49l-3.45-15.46Zm-5.64,12.58s.63-2.2,1.35-3.96c0,0,1.01,2.03,1.42,3.54,0,0-.95.36-2.77.42Z"/><path class="cls-34" d="m69.11,18.69l-6.07-.02c-.86,5.91-3.38,15.5-3.38,15.5l2.9-.02.58-1.92,1.07,2.18c1.55-1.23,2.48-1.57,2.48-1.57l.37,1.3h5.49l-3.45-15.46Zm-5.64,12.58s.63-2.2,1.35-3.96c0,0,1.01,2.03,1.42,3.54,0,0-.95.36-2.77.42Z"/><path class="cls-16" d="m84.25,18.59s-11.35-2.31-11.07,8.39c0,0,0,2.46,1.97,4.93,0,0,3.66,4.07,8.8,2.11l.6-2.99s-.9.48-1.85.44c0,0-3.17.23-3.27-3.34,0,0-.05-4.19,5.17-3.22l-.35-6.31Z"/><path class="cls-34" d="m83.81,18.27s-11.35-2.31-11.07,8.39c0,0,0,2.46,1.97,4.93,0,0,3.66,4.07,8.8,2.11l.6-2.99s-.9.47-1.85.44c0,0-3.17.23-3.27-3.34,0,0-.05-4.19,5.17-3.22l-.35-6.31Z"/><path class="cls-16" d="m42.62,24.92l-.33-6.35s-5.45-1.14-8.64,1.71c0,0-2.8,2.12-2.47,6.63,0,0,.02,3.92,3.47,6.26,0,0,2.7,2.16,7.32.87l.63-3.03s-1.01.52-2.11.45c0,0-3.33,0-3.03-3.71,0,0,.39-3.89,5.15-2.83Z"/><path class="cls-34" d="m42.14,24.62l-.33-6.35s-5.45-1.14-8.64,1.71c0,0-2.8,2.12-2.47,6.63,0,0,.02,3.92,3.47,6.26,0,0,2.7,2.16,7.32.87l.63-3.03s-1.01.52-2.11.45c0,0-3.33,0-3.03-3.71,0,0,.39-3.89,5.15-2.83Z"/><polygon class="cls-16" points="23.58 19.02 29.82 19.02 29.21 34.43 24.21 34.41 23.58 19.02"/><polygon class="cls-34" points="23.2 18.65 29.44 18.65 28.83 34.06 23.83 34.04 23.2 18.65"/><path class="cls-16" d="m21.84,19.1l-.23,5.58s-1.34-.19-3.17-.19c0,0-.43,4.9-.65,10h-4.12s-.11-4.22-.6-10.03c0,0-1.28.05-3.2.21l-.19-5.61,12.15.02Z"/><path class="cls-34" d="m21.37,18.65l-.23,5.58s-1.34-.19-3.17-.19c0,0-.43,4.9-.65,10h-4.12s-.11-4.22-.6-10.03c0,0-1.28.05-3.2.21l-.19-5.61,12.15.02Z"/><path class="cls-20" d="m32.36,38.3c.12.19.18.36.18.52,0,.32-.15.62-.44.92-.3.29-.6.44-.92.44-.14,0-.26-.04-.38-.11-.11-.07-.17-.15-.17-.24,0-.05.06-.14.17-.28.11-.14.19-.21.24-.21.06,0,.12.08.17.25s.14.25.26.25.24-.06.35-.18c.11-.12.16-.24.16-.38,0-.13-.07-.3-.21-.52-.14-.22-.23-.4-.27-.55-.23.39-.53.78-.89,1.19h-.07v-.28c.5-.54.83-1.05,1-1.54.14-.04.28-.07.42-.09.14-.02.23-.04.25-.04.02,0,.03,0,.03.02,0,.03,0,.06-.02.1-.03.1-.05.19-.05.27,0,.11.06.25.18.44Zm3.16-.59c.13.16.19.37.19.63,0,.46-.15.88-.46,1.26-.31.38-.64.57-1.01.57-.1,0-.18-.01-.24-.03-.06-.02-.14-.08-.23-.16-.15.66-.24,1.18-.28,1.58l-.77.14c.14-.97.33-1.95.55-2.94-.27.36-.45.58-.54.66h-.07v-.28c.38-.42.7-.94.95-1.54l.69-.13-.12.53c.15-.18.28-.31.41-.4.13-.09.27-.13.43-.13.2,0,.37.08.5.24Zm-.57.81c0-.16-.03-.29-.1-.39-.06-.1-.15-.15-.25-.15-.08,0-.16.04-.25.11-.09.07-.15.16-.2.25-.04.1-.09.26-.15.5l-.19.81c.11.18.22.27.35.27.2,0,.38-.16.54-.48.16-.32.24-.63.24-.93Zm9.35-.21c.12.19.18.36.18.52,0,.32-.15.62-.44.92-.3.29-.6.44-.92.44-.14,0-.26-.04-.38-.11-.11-.07-.17-.15-.17-.24,0-.05.06-.14.17-.28.11-.14.19-.21.24-.21.06,0,.12.08.17.25.05.17.14.25.26.25s.24-.06.35-.18c.11-.12.16-.24.16-.38s-.07-.3-.21-.52c-.14-.22-.23-.4-.27-.55-.23.39-.53.78-.89,1.19-.25.26-.47.45-.66.57-.19.12-.36.18-.53.18s-.31-.07-.42-.22c-.1-.13-.15-.3-.16-.51-.49.49-.88.74-1.15.74-.12,0-.23-.05-.31-.16-.08-.11-.13-.24-.13-.4,0-.29.15-.68.46-1.17-.15.08-.31.13-.49.16-.13.25-.34.51-.62.8-.1.09-.2.16-.3.2-.1.04-.17.06-.23.06-.15,0-.29-.06-.43-.17-.29.45-.62.68-1,.68-.23,0-.42-.09-.57-.27-.15-.18-.22-.42-.22-.72,0-.47.16-.88.49-1.21.33-.34.72-.51,1.17-.51.17,0,.3.02.38.06.08.04.13.08.15.14.02.05.03.12.03.2,0,.39-.1.86-.31,1.42.1.1.21.15.32.15.12,0,.28-.1.47-.31.15-.16.29-.33.41-.52-.17-.08-.26-.2-.26-.35s.05-.33.16-.51c.11-.18.25-.27.44-.27.16,0,.24.08.24.25,0,.13-.05.32-.14.56.34-.04.63-.3.88-.79h.28s-.28.78-.28.78c-.12.33-.19.56-.23.68-.03.12-.05.23-.05.32,0,.09.02.16.06.21.04.05.09.08.16.08.07,0,.14-.03.21-.08.07-.05.22-.19.45-.42.02-.16.07-.35.13-.56l.13-.47h-.23s.1-.47.1-.47h.29s.28-.98.28-.98l.81-.17-.31,1.08.43-.02-.1.48-.47.04-.2.7c-.07.24-.11.43-.11.58,0,.1.02.18.07.24.05.06.11.09.18.09.1,0,.21-.03.31-.1.1-.06.24-.2.43-.4.47-.52.78-1.01.95-1.48.14-.04.28-.07.42-.09.14-.02.23-.04.25-.04.02,0,.03,0,.03.02,0,.03,0,.06-.02.1-.03.1-.05.19-.05.27,0,.11.06.25.18.44Zm-6.76-.62s-.07-.02-.13-.02c-.26,0-.47.14-.62.42-.15.28-.22.61-.22.99,0,.21.03.37.1.49.06.12.15.17.27.17.14,0,.3-.14.47-.41-.19-.24-.29-.51-.29-.79,0-.33.14-.62.42-.86Zm18.99-1.42c-.11.08-.22.12-.32.12-.1,0-.23-.05-.38-.15-.06.23-.16.43-.27.61.12.11.27.16.45.16.36,0,.54-.25.54-.74Zm6.01,2.8v.36c-.26.28-.56.48-.92.61-.17.54-.38.95-.64,1.24-.26.29-.53.43-.82.43-.16,0-.29-.05-.38-.15-.1-.1-.15-.23-.15-.4,0-.22.1-.42.29-.6.19-.18.52-.35.98-.51l.13-.61c-.19.22-.36.39-.5.49-.14.1-.28.16-.43.16-.17,0-.31-.08-.41-.24-.07-.11-.12-.25-.14-.4-.46.49-.86.74-1.19.74-.14,0-.24-.05-.33-.15-.08-.1-.12-.23-.12-.39,0-.22.09-.56.27-1.01.09-.24.14-.4.14-.47s-.03-.1-.08-.1c-.03,0-.07.01-.11.04-.04.03-.09.07-.15.12-.05.05-.11.11-.17.17-.05.06-.11.12-.18.2l-.17.2c-.07.09-.12.19-.14.29-.03.18-.05.34-.06.48,0,.11,0,.26,0,.44l-.67.16c-.02-.28-.03-.49-.03-.62,0-.04,0-.07,0-.11-.46.49-.8.74-1.03.74-.13,0-.24-.07-.33-.2-.09-.14-.13-.31-.13-.51,0,0,0-.01,0-.02-.24.24-.45.42-.63.54-.19.12-.36.18-.53.18s-.31-.07-.42-.22c-.09-.13-.15-.3-.16-.5-.24.24-.45.43-.63.54-.19.12-.36.18-.53.18s-.31-.07-.42-.22c-.1-.13-.15-.3-.16-.51-.25.25-.47.43-.67.55-.2.12-.43.18-.68.18-.28,0-.5-.09-.67-.27-.12-.13-.2-.29-.23-.49-.14.15-.31.23-.51.23-.16,0-.33-.08-.5-.23-.22.25-.41.44-.57.56-.17.12-.35.18-.54.18-.18,0-.32-.07-.44-.22-.12-.15-.18-.33-.18-.56,0-.43.12-1.01.37-1.75.25-.73.49-1.29.72-1.66.27-.09.5-.16.71-.21.2-.05.32-.08.35-.08.06,0,.11.04.15.12.04.08.07.18.07.29,0,.23-.09.5-.28.81-.19.31-.43.62-.73.93l-.4.41c-.12.45-.19.78-.19,1,0,.12.03.21.08.28.05.07.12.11.21.11.1,0,.19-.03.27-.1.08-.06.17-.16.27-.3-.1-.18-.15-.36-.15-.55,0-.3.08-.58.24-.83.16-.25.33-.38.51-.38.07,0,.13.03.17.1.05.06.07.15.07.25,0,.34-.19.8-.56,1.39.11.14.24.21.38.21.09,0,.17-.02.23-.06.06-.04.15-.13.26-.27.02-.39.17-.75.44-1.08.3-.35.63-.53.99-.53.19,0,.34.05.45.15.11.1.17.23.17.39,0,.43-.44.78-1.33,1.04.08.4.29.6.63.6.13,0,.26-.04.38-.11.12-.07.3-.24.55-.49.02-.16.07-.35.13-.56l.13-.47h-.23s.1-.47.1-.47h.29s.28-.98.28-.98l.81-.17-.31,1.08.43-.02-.1.48-.47.04-.2.7c-.07.24-.11.43-.11.58,0,.1.02.18.07.24.05.06.11.09.18.09.1,0,.21-.03.31-.1.1-.07.25-.2.44-.41.02-.16.07-.35.13-.56l.13-.47h-.23s.1-.47.1-.47h.29s.28-.98.28-.98l.81-.17-.31,1.08.43-.02-.1.48-.47.04-.2.7c-.07.24-.11.43-.11.58,0,.1.02.18.07.24.05.06.11.09.18.09.1,0,.21-.03.31-.1.1-.07.25-.21.45-.42h0c.06-.38.19-.86.4-1.42l.77-.16h.04l-.3.97c-.13.4-.19.69-.19.86,0,.07.01.12.04.17.03.04.07.06.11.06.08,0,.16-.03.24-.09.08-.06.21-.19.38-.38.02-.15.05-.3.08-.45.08-.3.2-.63.37-1.01l.74-.15c-.16.43-.26.77-.31,1.01.33-.38.59-.64.79-.79.19-.15.37-.22.52-.22.1,0,.19.04.26.12.07.08.1.18.1.3,0,.2-.09.52-.26.98-.12.31-.18.52-.18.61,0,.12.05.19.15.19.14,0,.37-.19.69-.57.03-.38.18-.74.47-1.07.31-.37.65-.55,1-.55.2,0,.37.08.52.25.09-.03.21-.08.35-.15l.22-.1h.07c-.08.24-.14.48-.18.71l-.28,1.55c.27-.11.55-.33.84-.68Zm-14.84-1.31c.33-.33.57-.63.74-.91.17-.28.25-.49.25-.63,0-.06-.01-.11-.04-.14-.03-.04-.06-.06-.09-.06-.24,0-.53.58-.87,1.74Zm2.32,1.09c.52-.15.78-.42.78-.83,0-.2-.07-.3-.21-.3-.13,0-.26.1-.38.31-.12.21-.18.48-.18.81Zm10.82,1.47c-.65.24-.98.52-.98.83,0,.09.03.17.08.23.05.06.12.09.21.09.15,0,.27-.09.38-.28.11-.19.21-.48.31-.87Zm.48-2.27c0-.1-.02-.18-.07-.24-.05-.06-.11-.09-.18-.09-.21,0-.4.15-.56.44-.16.3-.24.6-.24.9,0,.14.03.26.09.34.06.08.13.13.23.13.14,0,.27-.09.38-.26.11-.17.2-.39.26-.66.06-.27.09-.45.09-.56Z"/></svg>